<?xml version="1.0" encoding="utf-8"?>
<!-- Generator: Adobe Illustrator 27.5.0, SVG Export Plug-In . SVG Version: 6.00 Build 0)  -->
<svg version="1.1" id="Layer_1" xmlns="http://www.w3.org/2000/svg" xmlns:xlink="http://www.w3.org/1999/xlink" x="0px" y="0px"
	 viewBox="0 0 2558 2000" style="enable-background:new 0 0 2558 2000;" xml:space="preserve">
<rect width="2558" height="2000"/>
<g>
	<path style="fill:#CBEFEF;" d="M2445.426,1644.168c-25.111-191.867,70.537-393.982,4.059-575.793
		c-21.111-57.739-57.299-108.569-86.79-162.544c-44.523-81.485-74.024-171.082-86.599-263.002
		c-8.226-60.135-9.308-121.367-23.01-180.503c-38.01-164.046-180.386-299.126-346.755-328.984
		c-134.081-24.064-277.337,6.74-394.251,76.471c-525.135,313.203-773.435,165.048-956.656,273.11
		C440.583,550.655,376.503,676.6,333.808,802.506c-42.695,125.907-33.636,400.11-132.423,489.45
		c-26.479,23.947-56.657,43.839-81.205,69.748c-80.787,85.267-84.415,222.38-37.43,329.869
		c42.781,97.87,143.09,229.782,241.384,279.266c3.512,1.769,7.095,3.417,10.736,4.967h278.468
		c52.652-9.649,167.385,0.674,209.762-3.423c165.71-16.02,291.151,3.767,434.459-12.227
		c336.681-37.576,677.267,16.814,1016.03,14.069c49.573-0.401,103.076-2.09,142.312-32.268
		c41.824-32.168,56.351-89.384,54.244-141.971S2452.257,1696.355,2445.426,1644.168z"/>
	<path style="opacity:0.4;fill:#FFFFFF;" d="M477.188,1648.813c13.152-12.335,25.788-25.834,33.094-42.318
		c8.75-19.74,9.147-42.123,7.652-63.664c-2.146-30.946-8.339-62.718-26.213-88.071c-25.577-36.278-69.914-53.109-107.031-77.454
		c-37.118-24.344-70.895-67.884-56.294-109.803c10.119-29.055,41.052-48.179,47.536-78.254c6.96-32.282-17.997-63.853-47.357-78.974
		c-14.615-7.527-30.164-12.371-46.196-15.538c-15.305,82.685-37.893,157.986-81.438,197.366c-10.177,9.204-20.9,17.809-31.64,26.387
		c0.84,0.593,1.688,1.173,2.525,1.771c9.767,6.969,19.785,14.807,24.124,25.992c6.213,16.019-0.605,35.496,7.81,50.476
		c14.436,25.699,55.45,14.325,80.302,30.176c9.857,6.287,16.45,16.543,21.819,26.929c9.471,18.32,16.106,40.272,8.196,59.319
		c-16.118,38.813-75.433,35.825-103.05,67.506c-30.642,35.15-7.441,91.399-23.031,135.348
		c-9.689,27.313-33.479,46.979-58.491,61.889c29.111,44.856,65.34,90.047,104.406,127.189c4.442-7.485,8.154-15.373,10.998-23.5
		c12.581-35.962,12.535-77.793,36.747-107.21c18.771-22.805,48.215-33.14,75.147-45.267
		C400.985,1709.213,441.844,1681.96,477.188,1648.813z"/>
	<path style="opacity:0.4;fill:#FFFFFF;" d="M2252.643,462.475c-0.769-3.314-1.595-6.612-2.447-9.902
		c-20.652,1.621-41.35,3.149-61.501,7.616c-50.177,11.122-94.667,39.891-143.735,55.18
		c-85.402,26.611-177.438,10.757-266.836,13.863c-84.09,2.921-174.006,21.73-248.342-17.688
		c-10.277-5.45-20.504-12.495-25.292-23.097c-7.138-15.804,0.417-35.254,13.558-46.568c13.143-11.314,30.596-16.105,47.625-19.378
		c73.902-14.204,149.972-5.815,225.209-4.177c75.236,1.638,154.103-4.607,218.178-44.076c30.466-18.766,57.48-46.278,66.503-80.904
		c3.924-15.06,4.667-31.743,14.212-44.034c5.814-7.486,13.861-12.096,22.848-15.047c-53.104-46.168-116.83-80.121-185.349-96.314
		c-19.515,4.235-38.001,11.13-54.769,21.645c-12.883,8.107-24.637,19.119-29.957,33.382s-2.813,32.115,8.825,41.926
		c6.358,5.359,14.805,7.995,20.564,13.992c10.22,10.644,8.298,28.833-0.444,40.721c-8.742,11.888-22.514,18.863-35.96,24.94
		c-68.498,30.959-142.46,49.783-217.424,55.335c-62.553,4.633-125.439,0.1-188.108,2.732
		c-62.668,2.631-126.713,13.038-180.795,44.808c-8.569,5.034-17.131,10.878-22.139,19.462c-5.577,9.56-5.999,21.238-5.195,32.277
		c2.257,31.009,13.19,61.341,31.235,86.66c2.991,4.196,6.17,8.209,9.488,12.08l107.476-22.155l19.016,92.245
		c17.545,3.886,35.438,6.29,53.137,7.347c72.01,4.299,143.672-9.985,215.578-15.769c155.032-12.473,310.117,14.59,465.111,27.514
		c29.198,2.435,58.637,4.365,87.742,1.008c22.271-2.568,44.081-8.427,64.738-17.08
		C2267.405,581.513,2266.195,520.969,2252.643,462.475z"/>
	<path style="opacity:0.4;fill:#FFFFFF;" d="M2384.878,1381.14c-26.999-11.558-52.008-27.45-79.238-38.448
		c-78.45-31.683-169.61-20.706-246.874-55.181c-14.065-6.275-28.02-14.492-36.334-27.457c-8.314-12.966-9.289-31.687,1.348-42.826
		c9.8-10.265,25.584-11.238,39.773-11.544c53.615-1.155,107.492-2.296,160.634,4.905c23.745,3.218,47.688,8.104,71.47,5.167
		c33.375-4.124,62.941-23.227,89.261-44.16c7.036-5.596,14.149-11.479,22.681-14.314c7.51-2.496,15.594-2.449,23.508-2.377
		c12.772,0.116,25.545,0.233,38.316,0.35c-3.546-29.329-9.979-58.279-20.382-86.731c-8.308-22.723-18.956-44.373-30.606-65.568
		c-23.534-4.811-47.045-9.754-70.577-14.512c-17.833-3.605-36.507-7.185-53.976-2.101c-26.289,7.652-42.99,32.47-62.463,51.718
		c-38.14,37.703-91.573,56.405-144.708,63.672c-53.136,7.266-107.055,4.221-160.683,4.635
		c-76.439,0.591-152.823,8.262-227.854,22.882c-22.774,4.438-46.651,10.145-63.438,26.16c-26.031,24.836-26.306,68.561-8.415,99.775
		s49.891,51.773,82.734,66.463c130.411,58.324,286.616,41.786,412.69,108.973c41.8,22.275,78.82,53.117,121.915,72.77
		c61.896,28.227,129.441,30.978,198.185,30.013c2.401-43.624,8.147-87.469,14.063-131.191
		C2431.563,1397.437,2407.692,1390.906,2384.878,1381.14z"/>
	<path style="opacity:0.8;fill:#FFFFFF;" d="M1882.057,378.065c-5.032-21.903-24.633-38.244-48.063-38.244
		c-4.302,0-8.473,0.554-12.45,1.588c-11.564-24.729-36.66-41.864-65.763-41.864c-7.523,0-14.779,1.145-21.604,3.27
		c-15.667-25.942-44.13-43.289-76.646-43.289c-38.687,0-71.637,24.553-84.122,58.926c-8.838-4.927-19.012-7.745-29.849-7.745
		c-33.91,0-61.399,27.489-61.399,61.399c0,2.011,0.104,3.997,0.293,5.958H1882.057z"/>
	<path style="fill:#9CDEDC;" d="M1985.919,1917.107c-4.124,4.002-7.584,11.931-11.247,20.325c-2.973,6.813-6.17,14.118-10.43,21.333
		h-108.218c2.936-1.835,5.939-3.566,9.03-5.144c6.991-3.566,14.095-6.336,20.361-8.779c9.248-3.604,17.982-7.011,22.457-11.485
		c4.075-4.078,7.497-11.92,11.12-20.223c5.306-12.158,11.91-27.29,24.623-39.626c17.166-16.655,38.998-22.221,56.541-26.692
		c12.272-3.127,23.862-6.082,29.283-11.529c2.921-2.937,5.864-8.425,8.98-14.234c1.965-3.663,3.996-7.451,6.405-11.399
		c19.905-32.617,54.345-55.498,92.126-61.206c2.143-0.324,4.142-0.574,6.074-0.815c3.107-0.388,31.735-6.226,41.279,0.331l0,0
		c17.94,12.324,17.299,39.259-1.436,50.341c-2.153,1.274-4.429,2.45-6.835,3.499c-9.403,4.104-18.323,5.218-25.49,6.11
		c-1.619,0.203-3.149,0.394-4.516,0.601c-19.936,3.012-38.844,15.574-49.347,32.784c-1.529,2.506-3.083,5.403-4.728,8.469
		c-0.519,0.966-1.053,1.962-1.604,2.977l-26.739,0.896l19.305,11.628c-2.916,4.355-6.313,8.745-10.409,12.862
		c-17.24,17.331-39.478,23-57.346,27.555C2002.978,1908.79,1991.469,1911.723,1985.919,1917.107z"/>
	<path style="fill:#8FD0D6;" d="M1970.758,1823.409c-4.201,6.188-6.521,17.202-8.977,28.866
		c-3.658,17.369-7.804,37.056-20.131,55.818c-13.635,20.751-33.035,33.343-48.623,43.458c-3.804,2.469-7.476,4.855-10.863,7.214
		h-100.502c10.346-22.015,25.629-41.692,44.697-56.973c7.968-6.387,16.29-11.788,23.633-16.553
		c10.835-7.031,21.068-13.674,25.591-20.555c4.118-6.271,6.413-17.166,8.843-28.701c3.557-16.894,7.984-37.916,20.935-56.986
		c17.485-25.748,43.841-38.594,65.019-48.915c14.814-7.22,28.806-14.039,34.277-22.41c2.948-4.511,5.253-12.28,7.693-20.506
		c1.539-5.186,3.129-10.548,5.159-16.214c9.335-26.059,25.211-49.452,45.493-68.052l18.101,28.584l-7.973-37.177
		c13.757-10.802,29.148-19.537,45.648-25.632c2.645-0.978,5.126-1.822,7.526-2.64c3.856-1.313,38.801-16.297,52.69-10.457l0,0
		c19.133,8.044,27.6,28.712,22.523,46.685l-35.964,3.035l27.288,12.396c-0.764,0.825-1.556,1.637-2.41,2.414
		c-2.409,2.19-4.999,4.289-7.788,6.261c-10.902,7.708-21.976,11.478-30.873,14.504c-2.011,0.686-3.91,1.331-5.597,1.954
		c-24.611,9.093-45.396,30.084-54.245,54.783c-1.288,3.598-2.505,7.698-3.792,12.038c-2.005,6.759-4.286,14.442-7.533,22.389
		l-40.716,7.833l34.016,6.011c-0.964,1.687-1.983,3.368-3.074,5.037c-17.402,26.63-44.248,39.713-65.817,50.227
		C1990.305,1808.315,1976.412,1815.085,1970.758,1823.409z"/>
	<path style="fill:#74BDC1;" d="M2001.205,1592.021c0.778,12.952,1.717,28.703-1.186,45.479
		c-20.921,11.778-61.777,34.798-57.119,32.319c4.365-2.322,34.489-9.312,52.135-13.287c-10.51,29.677-31.402,51.283-48.592,69.05
		c-13.286,13.731-25.836,26.701-28.723,38.091c-2.145,8.466-0.3,21.481,1.655,35.262c2.909,20.522,6.207,43.783,0.155,69.291
		c-6.693,28.212-22.967,49.765-36.043,67.081c-5.327,7.055-10.357,13.719-14.158,19.961c-0.698,1.146-1.361,2.317-2.008,3.499
		h-98.284c4.524-18.08,11.705-35.505,21.44-51.498c6.199-10.187,13.181-19.432,19.34-27.589
		c9.09-12.036,17.674-23.406,19.895-32.762c2.021-8.524,0.195-21.397-1.736-35.026c-2.83-19.959-6.352-44.799,0.261-70.893
		c8.928-35.231,32.733-59.837,51.863-79.607c13.382-13.83,26.021-26.893,28.688-38.262c1.438-6.127,0.871-15.573,0.27-25.573
		c-0.378-6.306-0.771-12.825-0.801-19.854c-0.239-54.277,22.74-107.67,61.943-145.04l18.042,7.96l-8.906-16.133
		c2.256-1.893,4.417-3.632,6.509-5.312c3.71-2.979,36.09-33.354,53.664-32.482l0,0c33.033,1.641,53.678,36.996,38.277,66.268
		c-1.77,3.365-3.777,6.701-6.052,9.977c-8.894,12.807-19.545,21.357-28.104,28.227c-1.934,1.554-3.761,3.021-5.363,4.376
		c-23.389,19.791-37.834,51.117-37.7,81.754C2000.588,1581.758,2000.888,1586.743,2001.205,1592.021z"/>
	<path style="fill:#9CDEDC;" d="M565,1940.87c4.586,3.463,8.998,10.903,13.669,18.782c3.79,6.394,7.864,13.25,12.982,19.883
		l107.391-13.35c-3.14-1.457-6.334-2.806-9.596-3.989c-7.377-2.677-14.768-4.549-21.289-6.2c-9.622-2.437-18.709-4.739-23.702-8.628
		c-4.547-3.544-8.911-10.904-13.531-18.696c-6.765-11.411-15.185-25.613-29.322-36.286c-19.089-14.41-41.442-17.24-59.402-19.514
		c-12.564-1.59-24.43-3.092-30.481-7.83c-3.26-2.553-6.859-7.636-10.668-13.018c-2.402-3.393-4.885-6.901-7.763-10.521
		c-23.776-29.913-60.775-48.37-98.972-49.375c-2.166-0.058-4.18-0.059-6.128-0.06c-3.131-0.001-32.261-2.264-40.923,5.42l0,0
		c-16.284,14.443-12.324,41.094,7.634,49.78c2.295,0.998,4.698,1.884,7.215,2.629c9.838,2.913,18.827,2.917,26.049,2.92
		c1.632,0.001,3.174,0.001,4.555,0.038c20.156,0.529,40.469,10.664,53.015,26.447c1.827,2.298,3.726,4.98,5.736,7.82
		c0.633,0.895,1.287,1.817,1.957,2.756l26.647-2.408l-17.723,13.92c3.431,3.963,7.344,7.9,11.916,11.48
		c19.247,15.072,42.014,17.954,60.308,20.271C547.046,1934.72,558.828,1936.211,565,1940.87z"/>
	<path style="fill:#8FD0D6;" d="M568.487,1846.017c4.932,5.622,8.593,16.267,12.469,27.538
		c5.772,16.786,12.315,35.811,26.863,52.909c16.091,18.911,36.896,29.013,53.612,37.128c4.079,1.981,8.017,3.896,11.67,5.818
		l99.735-12.397c-12.983-20.569-30.576-38.212-51.383-51.023c-8.696-5.354-17.621-9.688-25.495-13.511
		c-11.619-5.641-22.594-10.971-27.93-17.241c-4.861-5.714-8.482-16.243-12.315-27.391c-5.614-16.325-12.601-36.643-27.805-53.969
		c-20.528-23.395-48.267-32.892-70.556-40.521c-15.592-5.337-30.318-10.378-36.78-18.011c-3.482-4.113-6.728-11.538-10.164-19.4
		c-2.167-4.956-4.406-10.081-7.12-15.453c-12.478-24.709-31.119-45.965-53.541-61.92l-14.436,30.598l3.326-37.877
		c-14.984-9.021-31.336-15.791-48.462-19.805c-2.745-0.644-5.311-1.176-7.794-1.69c-3.99-0.827-40.515-11.386-53.579-3.878l0,0
		c-17.995,10.343-23.847,31.897-16.593,49.106l36.064-1.424l-25.551,15.667c0.86,0.726,1.746,1.433,2.69,2.099
		c2.661,1.878,5.49,3.64,8.501,5.252c11.77,6.306,23.223,8.68,32.426,10.586c2.08,0.432,4.045,0.839,5.794,1.248
		c25.546,5.988,48.761,24.255,60.589,47.674c1.723,3.411,3.436,7.331,5.249,11.479c2.823,6.459,6.034,13.804,10.237,21.288
		l41.371,2.751l-33.014,10.161c1.165,1.554,2.384,3.097,3.672,4.619c20.555,24.279,48.808,33.951,71.51,41.724
		C547.228,1833.449,561.85,1838.453,568.487,1846.017z"/>
	<path style="fill:#74BDC1;" d="M509.729,1620.151c0.825,12.949,1.837,28.696,6.786,44.985c22.215,9.107,65.599,26.911,60.67,25.025
		c-4.618-1.766-35.375-4.985-53.376-6.754c14.09,28.153,37.489,47.018,56.739,62.528c14.878,11.987,28.932,23.311,33.202,34.257
		c3.172,8.137,2.947,21.28,2.708,35.196c-0.356,20.726-0.759,44.215,8.393,68.781c10.122,27.171,28.93,46.552,44.043,62.123
		c6.156,6.344,11.971,12.336,16.512,18.062c0.834,1.052,1.637,2.132,2.424,3.224l97.534-12.123
		c-6.72-17.384-15.995-33.79-27.629-48.459c-7.409-9.345-15.478-17.658-22.596-24.993c-10.505-10.823-20.426-21.047-23.784-30.058
		c-3.057-8.209-2.833-21.21-2.598-34.974c0.347-20.155,0.777-45.24-9.003-70.318c-13.206-33.861-39.865-55.342-61.287-72.602
		c-14.986-12.073-29.14-23.478-33.19-34.432c-2.183-5.902-2.785-15.346-3.422-25.344c-0.402-6.304-0.817-12.822-1.654-19.801
		c-6.458-53.893-35.849-104.042-79.362-136.291l-16.922,10.125l6.848-17.109c-2.472-1.6-4.832-3.059-7.115-4.467
		c-4.049-2.498-39.929-28.648-57.261-25.615l0,0c-32.58,5.703-48.705,43.335-29.811,70.483c2.172,3.122,4.575,6.184,7.237,9.153
		c10.405,11.612,22.029,18.783,31.37,24.545c2.111,1.303,4.105,2.533,5.862,3.681c25.652,16.755,43.851,46.06,47.497,76.479
		C509.076,1609.891,509.394,1614.875,509.729,1620.151z"/>
	
		<rect x="664.662" y="617.704" transform="matrix(0.9794 -0.2019 0.2019 0.9794 -219.2492 242.6855)" style="fill:#CBEFEF;" width="830.738" height="1156.817"/>
	
		<rect x="600.032" y="722.695" transform="matrix(0.9697 -0.2443 0.2443 0.9697 -287.0853 287.4768)" style="fill:#FFFFFF;" width="830.738" height="1156.817"/>
	<g>
		<path style="fill:#FF5B7E;" d="M831.22,1201.54l-182.828,46.06l-46.059-182.829l182.828-46.059L831.22,1201.54z M660.311,1227.65
			l150.96-38.03l-38.031-150.96l-150.959,38.03L660.311,1227.65z"/>
	</g>
	<g>
		<path style="fill:#FF5B7E;" d="M901.137,1474.587l-184.953,46.595l-46.595-184.953l184.953-46.595L901.137,1474.587z
			 M729.694,1498.573l148.836-37.496l-37.496-148.835l-148.836,37.495L729.694,1498.573z"/>
	</g>
	<g>
		<path style="fill:#FF5B7E;" d="M969.725,1746.839l-184.953,46.594l-46.595-184.952l184.953-46.595L969.725,1746.839z
			 M798.281,1770.824l148.835-37.495l-37.495-148.835l-148.836,37.495L798.281,1770.824z"/>
	</g>
	
		<rect x="848.826" y="1004.646" transform="matrix(0.9697 -0.2443 0.2443 0.9697 -215.2351 291.4129)" style="fill:#CFE4FF;" width="436.728" height="17.528"/>
	
		<rect x="863.735" y="1063.825" transform="matrix(0.9697 -0.2443 0.2443 0.9697 -229.2394 296.8463)" style="fill:#CFE4FF;" width="436.728" height="17.527"/>
	
		<rect x="917.414" y="1276.898" transform="matrix(0.9697 -0.2443 0.2443 0.9697 -279.6659 316.4164)" style="fill:#CFE4FF;" width="436.728" height="17.528"/>
	
		<rect x="932.323" y="1336.077" transform="matrix(0.9697 -0.2443 0.2443 0.9697 -293.671 321.8512)" style="fill:#CFE4FF;" width="436.728" height="17.527"/>
	
		<rect x="986.001" y="1549.15" transform="matrix(0.9697 -0.2443 0.2443 0.9697 -344.0965 341.4199)" style="fill:#CFE4FF;" width="436.728" height="17.528"/>
	
		<rect x="1000.91" y="1608.329" transform="matrix(0.9697 -0.2443 0.2443 0.9697 -358.1022 346.8555)" style="fill:#CFE4FF;" width="436.728" height="17.527"/>
	<g>
		<path style="fill:#07085B;" d="M785.578,956.024l-55.614-72.708l14.848-3.74l28.224,37.969
			c10.476,14.127,14.986,20.962,17.684,25.307l0.229-0.058c0.222-4.458,1.432-12.68,3.55-29.512l7.297-48.063l14.417-3.632
			l-15.099,90.522L785.578,956.024z"/>
		<path style="fill:#07085B;" d="M917.837,879.074c5.779,22.939-4.696,46.646-32.588,53.673
			c-26.591,6.699-47.621-8.07-53.639-31.959c-5.687-22.574,6.171-46.465,32.696-53.147
			C890.925,840.934,912.161,856.543,917.837,879.074z M845.793,896.9c4.291,17.035,18.082,29.495,37.251,24.666
			c19.099-4.812,24.782-22.023,20.588-38.669c-4.108-16.309-17.704-28.962-37.182-24.055
			C848.185,863.443,841.664,880.508,845.793,896.9z"/>
		<path style="fill:#07085B;" d="M947.623,840.389l-30.519,7.689l-2.821-11.196l74.534-18.777l2.82,11.196l-30.468,7.675
			l17.722,70.348l-13.546,3.413L947.623,840.389z"/>
		<path style="fill:#07085B;" d="M1074.964,843.648l-48.097,12.117l6.532,25.931l53.154-13.391l1.095,11.62l-64.916,16.354
			l-20.543-81.543l64.12-16.153l2.818,11.186l-50.635,12.756l5.556,22.054l48.097-12.117L1074.964,843.648z"/>
	</g>
	<g>
		<polygon style="fill:#07085B;" points="720.781,1194.883 665.506,1164.388 673.973,1149.041 711.999,1170.02 756.713,1060.494 
			772.94,1067.118 		"/>
	</g>
	<polygon style="fill:#07085B;" points="827.648,1347.548 809.781,1336.871 779.423,1387.676 728.617,1357.318 717.941,1375.186 
		768.747,1405.544 738.389,1456.349 756.255,1467.025 786.614,1416.22 837.419,1446.578 848.095,1428.711 797.29,1398.353 	"/>
	<path style="fill:#FFD0CF;" d="M1453.955,652.339c0,0,21.939,197.929,28.476,243.676c6.535,45.748,2.801,272.619,22.407,321.168
		c19.605,48.548,50.415,110.168,46.681,174.588s-4.668,297.826-4.668,297.826l322.101-7.469c0,0-12.549-342.143-15.35-373.886
		c0,0,72.301-49.98,99.376-125.604c27.075-75.623,95.23-205.397,110.169-217.535c14.938-12.137,60.686-33.61,56.951-49.482
		c-3.734-15.872-44.814-44.814-124.173,15.872c-79.358,60.685-69.089,93.363-90.562,80.292
		c-21.474-13.07,30.343-535.901-36.879-535.901c-67.221,0-58.602,380.919-81.351,378.43
		c-22.748-2.489-21.814-436.314-73.164-427.912c-48.624,7.957-21.474,423.867-40.146,425.734
		c-18.673,1.867-20.54-375.318-64.421-370.65c-62.209,6.618-18.672,385.588-33.61,387.455
		c-14.938,1.867-78.425-259.082-103.633-257.681C1446.717,612.673,1453.955,652.339,1453.955,652.339z"/>
	<path style="fill:#FFC0BB;" d="M1264.595,896.994l-0.736-28.667l-40.784,8.405l-2.4,18.9
		C1223.779,898.74,1240.378,913.442,1264.595,896.994z"/>
	<path style="fill:#FC8D84;" d="M1264.497,893.158l-0.638-24.83l-41.375,12.869l-1.163,9.305
		C1230.501,893.834,1247.95,897.883,1264.497,893.158z"/>
	<path style="fill:#F99893;" d="M1292.053,816.542c-2.352,7.163,0.539,14.448,6.454,16.273c5.915,1.824,12.616-2.504,14.968-9.667
		c2.35-7.163-0.539-14.448-6.455-16.272C1301.104,805.052,1294.403,809.379,1292.053,816.542z"/>
	<path style="fill:#FFC0BB;" d="M1293.324,857.294c1.537-3.129,2.785-6.42,3.72-9.835c2.698-9.19,3.652-18.799,3.804-27.129
		c0.032-1.788,0.172-3.568,0.346-5.349c0.701-7.186,0.058-14.699-2.294-22.296c-7.566-24.443-31.258-41.481-57.595-41.358
		c-35.481,0.166-62.432,29.373-59.699,62.728c-3.908-1.729-8.15-1.872-11.72,0.013c-6.849,3.616-8.615,13.272-3.946,21.568
		c4.669,8.295,14.006,12.088,20.854,8.471c0.951-0.502,1.793-1.131,2.545-1.846c5.311,28.152,31.108,48.221,59.858,45.556
		c14.06-1.303,26.354-7.822,35.217-17.482c0.599-0.569,1.223-1.231,1.872-1.994C1289.139,864.993,1291.443,861.251,1293.324,857.294
		z"/>
	<path style="fill:#333333;" d="M1239.681,815.665c0.276,2.791-1.834,5.269-4.714,5.536c-2.88,0.267-5.439-1.779-5.716-4.569
		c-0.276-2.79,1.834-5.269,4.714-5.536C1236.845,810.829,1239.404,812.875,1239.681,815.665z"/>
	<path style="fill:#333333;" d="M1280.809,813.665c0.276,2.791-1.834,5.269-4.714,5.536c-2.88,0.267-5.439-1.779-5.716-4.569
		c-0.276-2.79,1.834-5.269,4.714-5.536C1277.973,808.829,1280.531,810.875,1280.809,813.665z"/>
	<path style="fill:#333333;" d="M1244.981,805.061c-2.654-0.78-5.173-1.375-7.677-1.704c-2.497-0.332-4.951-0.347-7.333-0.004
		c-2.367,0.37-4.741,0.94-6.989,2.029l-0.875,0.356c-0.291,0.124-0.549,0.304-0.837,0.441l-1.714,0.893
		c-1.15,0.618-2.21,1.387-3.487,2.005c0.653-1.17,1.403-2.325,2.282-3.385c0.986-0.944,1.884-2.061,3.104-2.797
		c2.255-1.729,5.103-2.758,7.988-3.184c2.906-0.415,5.896-0.09,8.583,0.85C1240.696,801.528,1243.174,802.982,1244.981,805.061z"/>
	<path style="fill:#333333;" d="M1262.129,803.458c1.608-2.226,3.941-3.888,6.511-5.081c2.589-1.167,5.538-1.748,8.471-1.585
		c2.914,0.176,5.845,0.956,8.25,2.484c1.284,0.629,2.281,1.664,3.351,2.519c0.974,0.98,1.828,2.065,2.587,3.175
		c-1.329-0.506-2.456-1.18-3.658-1.697l-1.791-0.742c-0.3-0.111-0.573-0.269-0.875-0.367l-0.904-0.279
		c-2.34-0.891-4.757-1.255-7.149-1.419c-2.404-0.137-4.847,0.089-7.303,0.635C1267.155,801.644,1264.701,802.453,1262.129,803.458z"
		/>
	<path style="fill:#FFFFFF;" d="M1275.117,847.34c-1.756,6.221-9.422,10.816-18.532,10.658c-9.109-0.158-16.604-5.015-18.132-11.293
		L1275.117,847.34z"/>
	<polygon style="fill:#1E1E1E;" points="1111.511,1252.188 1076.638,1968.009 1150.977,1975.568 1279.456,1240.849 	"/>
	<path style="fill:#FFFFFF;" d="M1205.747,908.213c0,0-8.334,366.65-5.79,366.592c2.544-0.058,73.176,13.294,73.176,13.294
		l22.005-30.24l-3.869-337.046l-36.298-12.6l-12.564-3.563l-16.237,0.127L1205.747,908.213z"/>
	<polygon style="fill:#282828;" points="1268.01,1193.998 1245.298,922.888 1237.896,922.886 1216.065,1193.998 1242.037,1224.059 	
		"/>
	<path style="fill:#424444;" d="M1234.254,921.049l1.773,1.515c3.362,2.872,8.287,2.964,11.755,0.22l3.088-2.443l-8.235-13.466
		l-5.782,1.339L1234.254,921.049z"/>
	<path style="fill:#F7B5B2;" d="M1568.922,744.487c0.231,1.124,1.617,1.555,2.431,0.745c6.3-6.274,26.252-25.888,28.213-24.648
		c2.332,1.475-15.069,19.435-13.932,21.731c1.138,2.295,17.667-15.653,19.905-13.675c2.238,1.979-13.383,17.838-12.73,19.001
		c0.652,1.164,17.243-12.432,19.258-12.058c2.016,0.374-13.93,17.042-13.538,18.678c0.392,1.636,15.22-6.208,16.04-5.014
		c0.82,1.194,1.566,1.854-26.757,29.078l-11.609,10.242l-13.993,3.245l-9.877-14.164c0,0,8.045-49.917,9.942-50.781
		C1564.083,726.041,1565.371,727.174,1568.922,744.487z"/>
	<path style="fill:#E8EFF9;" d="M1264.584,895.2c0,0-11.592,6.708-22.134,9.438c-10.542-2.73-22.133-9.438-22.133-9.438
		l-14.57,13.013c2.205,11.921,25.987,20.632,25.987,20.632l10.454-20.692l8.286,20.692c0,0,17.943-4.988,28.981-16.485
		L1264.584,895.2z"/>
	<g>
		<path style="fill:#282828;" d="M1583.585,791.81c0,0-8.82-22.526-39.06-24.88c0,0-58.85,151.349-271.393,138.122
			c1.286,51.461,7.35,289.948,11.084,363.006c37.347-4.176,69.631-8.728,69.631-8.728s-16.8-201.178-5.039-255.777
			C1348.809,1003.552,1535.706,1005.523,1583.585,791.81z"/>
		<path style="fill:#282828;" d="M1208.74,905.49c-27.433,6.263-197.602,47.378-230.787,110.661
			c-36.12,68.879,59.639,198.237,100.798,204.958c0,0,16.38-15.96,24.78-55.439c0,0-42-46.199-47.459-107.938
			c0,0,42.42-19.32,60.899-24.78l-15.227,253.233c0,0,44.403,18.485,83.883,21.846c6.385,0.544,15.175,0.513,25.409,0.085
			L1208.74,905.49z"/>
	</g>
	<polygon style="fill:#424444;" points="1208.74,905.49 1151.41,957.352 1180.075,977.512 1151.41,1009.432 1208.74,1274.533 	"/>
	<polygon style="fill:#424444;" points="1273.133,905.051 1330.463,956.512 1301.798,976.672 1330.463,1008.592 1284.217,1268.057 	
		"/>
	<path style="opacity:0.5;fill:#F99893;" d="M1547.28,921.097c0,0,174.739-54.738,306.321-7.369
		C1853.602,913.729,1694.651,901.097,1547.28,921.097z"/>
	<rect x="1529.939" y="1805.205" style="fill:#FEB546;" width="337.027" height="156.148"/>
	<path style="opacity:0.5;fill:#F99893;" d="M1547.28,1046.29c0,0,151.582,131.932,181.758,197.196
		c0,0,81.404-148.774,147.37-202.108c0,0-100.353,43.509-145.265,124.914C1731.144,1166.292,1646.229,1076.466,1547.28,1046.29z"/>
	<path style="opacity:0.5;fill:#F99893;" d="M1552.895,1236.189c0,0,12.632,82.809,136.143,70.878
		C1689.037,1307.067,1588.59,1289.711,1552.895,1236.189z"/>
	<path style="fill:#F4A640;" d="M1541.998,1660.79c47.862,0.845,176.777,2.563,328.201-0.039c10.8-0.186,19.84,8.153,20.535,18.933
		l8.573,133.089c0.751,11.664-8.507,21.538-20.195,21.538h-342.116c-11.453,0-20.624-9.497-20.225-20.943l4.643-133.049
		C1521.799,1669.283,1530.959,1660.595,1541.998,1660.79z"/>
	<path style="fill:#F3FDFF;" d="M1856.191,1747.529c0,14.953-12.121,27.075-27.074,27.075s-27.075-12.122-27.075-27.075
		s12.122-27.075,27.075-27.075S1856.191,1732.576,1856.191,1747.529z"/>
	<rect x="1226.447" y="1289.497" style="fill:#FF5B7E;" width="332.689" height="671.655"/>
	<polygon style="fill:#E03268;" points="1135.429,1961.152 1226.447,1961.152 1226.447,1289.497 1135.429,1335.529 	"/>
	<polygon style="fill:#CE205F;" points="1113.808,1346.341 1135.429,1346.341 1135.429,1335.529 1124.618,1333.786 	"/>
	<path style="fill:#54A9D4;" d="M1471.604,1228.47h-10.069v-34.155c3.869-1.975,5.507-6.672,3.647-10.634l-9.626-20.514
		c-1.854,1.954-4.091,3.606-6.676,4.819c-2.586,1.213-5.286,1.878-7.973,2.056l9.625,20.513c1.22,2.599,3.645,4.238,6.295,4.582
		v33.333h-69.572v-38.128c5.738-2.786,8.193-9.672,5.475-15.465l-13.898-29.618c-2.677,2.821-5.906,5.206-9.64,6.957
		c-3.733,1.752-7.632,2.713-11.512,2.968l13.898,29.619c2.046,4.36,6.442,6.863,10.969,6.713v36.954h-58.542v-15.961
		c3.072-1.569,4.373-5.299,2.896-8.445l-7.645-16.293c-1.472,1.552-3.249,2.863-5.303,3.827s-4.198,1.492-6.333,1.633l7.646,16.292
		c0.817,1.741,2.317,2.939,4.031,3.437v15.511h-12.991c-13.481,0-24.411,10.929-24.411,24.411l132.663-4.186l81.457,4.186
		C1496.016,1239.398,1485.087,1228.47,1471.604,1228.47z"/>
	<rect x="1226.447" y="1245.558" style="fill:#E03268;" width="355.705" height="43.939"/>
	<polygon style="fill:#CE205F;" points="1113.808,1346.341 1226.447,1289.497 1226.447,1245.558 1113.808,1305.412 	"/>
	<path style="fill:#FEB546;" d="M1388.08,1107.913c8.428,17.959,0.7,39.349-17.258,47.775c-17.959,8.428-39.35,0.7-47.776-17.259
		s-0.7-39.349,17.259-47.775S1379.653,1089.954,1388.08,1107.913z"/>
	<path style="fill:#FEB546;" d="M1324.344,1167.228c4.636,9.879,0.386,21.646-9.493,26.28c-9.879,4.636-21.645,0.385-26.28-9.493
		c-4.635-9.879-0.385-21.645,9.494-26.28C1307.942,1153.099,1319.709,1157.35,1324.344,1167.228z"/>
	<path style="fill:#FEB546;" d="M1461.962,1137.303c5.837,12.438,0.485,27.252-11.952,33.089
		c-12.438,5.836-27.253,0.484-33.089-11.953c-5.837-12.438-0.485-27.252,11.953-33.089
		C1441.312,1119.514,1456.126,1124.865,1461.962,1137.303z"/>
	<polygon style="fill:#FFC0BB;" points="918.072,1941.787 918.072,1926.852 900.986,1922.12 897.184,1923.791 896.535,1941.787 
		901.915,1957.469 	"/>
	<path style="fill:#04B2A1;" d="M903.055,1456.575c0,0-22.416,26.635-75.208,31.333c-52.792,4.699-13.268,32.575-13.268,32.575
		s63.62,9.161,85.847-5.764C922.652,1499.794,903.055,1456.575,903.055,1456.575z"/>
	<polygon style="fill:#1E1E1E;" points="880.915,1635.506 893.038,1930.979 921.27,1930.979 946.146,1707.647 913.531,1607.59 	"/>
	<polygon style="fill:#FFC0BB;" points="1027.25,1941.787 1027.25,1926.852 1010.165,1922.12 1006.362,1923.791 1005.714,1941.787 
		1011.094,1957.469 	"/>
	<path style="fill:#282828;" d="M801.554,1442.028l-134.228,31.611c-5.272,1.241-8.541,6.522-7.299,11.795l46.017,195.396
		c1.242,5.272,6.523,8.541,11.796,7.299l134.228-31.611c5.272-1.242,8.54-6.522,7.299-11.796l-46.017-195.395
		C812.107,1444.054,806.827,1440.786,801.554,1442.028z"/>
	
		<rect x="691.231" y="1465.58" transform="matrix(-0.9734 0.2292 -0.2292 -0.9734 1854.0891 2903.6858)" style="fill:#FFFFFF;" width="134.32" height="187.906"/>
	<path style="fill:#4D5296;" d="M705.35,1480.477l70.791-16.672l-0.997-4.236c-2.26-9.595-11.87-15.541-21.465-13.281l-36.043,8.488
		c-9.595,2.26-15.542,11.87-13.282,21.465L705.35,1480.477z"/>
	
		<rect x="735.628" y="1483.662" transform="matrix(-0.9734 0.2292 -0.2292 -0.9734 1851.0629 2757.5381)" style="fill:#CFE4FF;" width="59.474" height="5.244"/>
	
		<rect x="740.042" y="1502.401" transform="matrix(-0.9734 0.2292 -0.2292 -0.9734 1864.0675 2793.5059)" style="fill:#CFE4FF;" width="59.474" height="5.244"/>
	
		<rect x="744.455" y="1521.141" transform="matrix(-0.9734 0.2292 -0.2292 -0.9734 1877.0719 2829.4736)" style="fill:#CFE4FF;" width="59.474" height="5.244"/>
	
		<rect x="748.868" y="1539.88" transform="matrix(-0.9734 0.2292 -0.2292 -0.9734 1890.0789 2865.4399)" style="fill:#CFE4FF;" width="59.474" height="5.244"/>
	
		<rect x="753.281" y="1558.619" transform="matrix(-0.9734 0.2292 -0.2292 -0.9734 1903.0834 2901.4077)" style="fill:#CFE4FF;" width="59.474" height="5.244"/>
	
		<rect x="757.694" y="1577.358" transform="matrix(-0.9734 0.2292 -0.2292 -0.9734 1916.0861 2937.3772)" style="fill:#CFE4FF;" width="59.474" height="5.244"/>
	
		<rect x="762.107" y="1596.098" transform="matrix(-0.9734 0.2292 -0.2292 -0.9734 1929.0906 2973.3452)" style="fill:#CFE4FF;" width="59.474" height="5.244"/>
	
		<rect x="766.521" y="1614.837" transform="matrix(-0.9734 0.2292 -0.2292 -0.9734 1942.0981 3009.3105)" style="fill:#CFE4FF;" width="59.474" height="5.244"/>
	
		<rect x="693.874" y="1496.981" transform="matrix(-0.9734 0.2292 -0.2292 -0.9734 1750.1293 2829.1157)" style="fill:#CFE4FF;" width="33.735" height="38.46"/>
	
		<rect x="705.513" y="1546.402" transform="matrix(-0.9734 0.2292 -0.2292 -0.9734 1784.4261 2923.9758)" style="fill:#CFE4FF;" width="33.735" height="38.46"/>
	
		<rect x="717.152" y="1595.824" transform="matrix(-0.9734 0.2292 -0.2292 -0.9734 1818.7244 3018.835)" style="fill:#CFE4FF;" width="33.735" height="38.46"/>
	<path style="fill:#FFC0BB;" d="M806.116,1556.926c0.499,0.441,0.313,1.264-0.331,1.438c-4.985,1.35-20.643,5.697-20.588,7.044
		c0.065,1.602,14.151-1.942,14.976-0.705c0.825,1.238-13.002,4.348-12.656,6.048s12.858-1.558,13.254-0.892
		c0.396,0.666-11.259,5.068-11.655,6.19c-0.397,1.123,12.617-2.063,13.326-1.393c0.709,0.672-7.54,5.856-7.177,6.616
		c0.363,0.76,0.478,1.326,22.395-5.026l8.521-2.869l5.693-6.1l-4.261-9.079c0,0-27.451-10.436-28.436-9.732
		C798.239,1549.139,798.435,1550.115,806.116,1556.926z"/>
	<path style="fill:#282828;" d="M893.038,1636.133l110.6,294.846l27.087-2.211c0,0-33.721-270.32-53.898-296.025
		c-20.177-25.705-64.401-20.177-64.401-20.177L893.038,1636.133z"/>
	<path style="fill:#07085B;" d="M954.747,1406.453c0,0,5.879-30.504-11.305-41.233c-17.185-10.729-34.893-8.832-46.729-1.609
		c-11.836,7.223-18.175,31.15-12.238,44.48l39.651-14.354L954.747,1406.453z"/>
	<path style="fill:#FFC0BB;" d="M905.311,1456.846c0,0,13.663,8.098,24.306,0l0,0l-2.51-19.767l-21.177-4.363L905.311,1456.846
		L905.311,1456.846z"/>
	<path style="fill:#FC8D84;" d="M905.6,1445.608l0.331-12.893l21.483,6.682l0.604,4.832
		C923.251,1445.96,914.191,1448.062,905.6,1445.608z"/>
	<path style="fill:#F99893;" d="M891.292,1405.826c1.221,3.72-0.28,7.503-3.352,8.449c-3.071,0.947-6.551-1.3-7.771-5.019
		c-1.221-3.72,0.28-7.502,3.352-8.449C886.592,1399.86,890.071,1402.107,891.292,1405.826z"/>
	<path style="fill:#FFC0BB;" d="M890.632,1426.986c-0.799-1.625-1.447-3.333-1.932-5.106c-1.401-4.771-1.897-9.762-1.975-14.087
		c-0.017-0.928-0.089-1.853-0.179-2.776c-0.364-3.731-0.03-7.633,1.191-11.577c3.928-12.692,16.231-21.539,29.906-21.475
		c18.423,0.086,32.417,15.252,30.997,32.57c2.029-0.897,4.232-0.972,6.086,0.007c3.556,1.878,4.473,6.892,2.049,11.198
		c-2.425,4.308-7.272,6.277-10.829,4.399c-0.494-0.261-0.931-0.587-1.321-0.959c-2.757,14.618-16.153,25.039-31.081,23.655
		c-7.301-0.677-13.684-4.062-18.287-9.078c-0.311-0.296-0.635-0.639-0.972-1.035
		C892.805,1430.984,891.608,1429.041,890.632,1426.986z"/>
	<path style="fill:#333333;" d="M918.485,1405.371c-0.144,1.449,0.952,2.736,2.448,2.875c1.496,0.139,2.825-0.924,2.968-2.373
		c0.143-1.449-0.952-2.735-2.448-2.874C919.958,1402.86,918.629,1403.922,918.485,1405.371z"/>
	<path style="fill:#333333;" d="M897.13,1404.333c-0.144,1.448,0.952,2.735,2.448,2.874s2.824-0.924,2.968-2.372
		c0.144-1.449-0.952-2.736-2.448-2.875C898.602,1401.821,897.274,1402.884,897.13,1404.333z"/>
	<path style="fill:#07085B;" d="M915.733,1399.865c1.378-0.405,2.686-0.714,3.986-0.885c1.296-0.172,2.571-0.18,3.807-0.002
		c1.229,0.192,2.462,0.488,3.629,1.054l0.454,0.185c0.151,0.064,0.285,0.158,0.435,0.229l0.89,0.463
		c0.597,0.321,1.147,0.72,1.811,1.041c-0.339-0.607-0.729-1.207-1.185-1.757c-0.512-0.49-0.978-1.07-1.612-1.453
		c-1.171-0.897-2.649-1.432-4.148-1.653c-1.509-0.215-3.062-0.046-4.457,0.441C917.958,1398.03,916.671,1398.785,915.733,1399.865z"
		/>
	<path style="fill:#07085B;" d="M906.829,1399.033c-0.835-1.156-2.047-2.019-3.381-2.639c-1.345-0.605-2.875-0.907-4.398-0.822
		c-1.513,0.091-3.035,0.496-4.284,1.289c-0.666,0.327-1.184,0.864-1.739,1.309c-0.506,0.509-0.949,1.072-1.343,1.648
		c0.69-0.263,1.275-0.613,1.9-0.881l0.93-0.386c0.155-0.058,0.298-0.14,0.454-0.19l0.469-0.146c1.215-0.462,2.471-0.651,3.712-0.736
		c1.248-0.071,2.517,0.046,3.792,0.329C904.22,1398.091,905.494,1398.511,906.829,1399.033z"/>
	<path style="fill:#F99893;" d="M911.089,1398.968c0.414,1.86,0.51,3.763,0.375,5.673c-0.07,0.959-0.216,1.914-0.477,2.878
		c-0.279,0.957-0.642,1.935-1.407,2.829l-0.327,0.317l-0.292,0.271c-0.123,0.129-0.298,0.229-0.389,0.372
		c-0.237,0.258-0.398,0.549-0.486,0.858c-0.218,0.62,0.002,1.348,0.399,2.021c0.87,1.367,2.588,2.269,4.425,2.867
		c-1.922,0.132-4.122-0.363-5.595-2.03c-0.72-0.808-1.203-2.01-0.952-3.226c0.061-0.301,0.148-0.595,0.297-0.861
		c0.12-0.285,0.304-0.519,0.486-0.757c0.174-0.25,0.413-0.413,0.622-0.619c0.132-0.113,0.155-0.152,0.223-0.219l0.182-0.178
		c0.478-0.538,0.831-1.334,1.131-2.143c0.32-0.814,0.496-1.703,0.726-2.582C910.423,1402.661,910.732,1400.832,911.089,1398.968z"/>
	<path style="fill:#FFFFFF;" d="M902.682,1420.727c0.912,3.23,4.893,5.616,9.623,5.534c4.73-0.082,8.622-2.604,9.415-5.864
		L902.682,1420.727z"/>
	<path style="fill:#07085B;" d="M947.846,1405.48c1.781-1.667,3.199-1.604,3.199-1.604l-1.216-9.746l-3.268-5.772
		c0,0-12.523-15.388-12.958-15.765c-0.434-0.377-9.718-5.148-10.288-5.39c-0.569-0.241-13.221,2.176-13.221,2.176
		s-22.559-3.7-18.326,7.856c4.233,11.556,20.815,17.053,21.634,16.5c-2.757-2.519-3.32-9.959-3.32-9.959
		C922.145,1395.874,944.384,1404.228,947.846,1405.48z"/>
	<path style="fill:#02CCC0;" d="M823.148,1547.059c10.826,2.585,36.3,1.297,55.599-0.219c0.156-15.961,0.768-30.814,2.169-41.242
		c4.975-37.037,22.139-49.022,22.139-49.022c17.11,2.035,28.995-7.087,28.995-7.087c22.941,0.277,36.208,12.715,36.208,12.715
		c35.246,30.401,8.569,92.594,8.569,92.594l9.674,82.169c-21.836,7.463-111.113,2.977-111.113,2.977s4.364-26.169,3.725-52.8
		c-28.293-1.587-55.964-6.087-55.964-6.087C822.042,1574.975,823.148,1547.059,823.148,1547.059z"/>
	<path style="fill:#CAF0FF;" d="M940.986,1491.687c0.058,12.302-5.332,24.153-13.841,32.61c-4.253,4.257-9.19,7.806-14.519,10.621
		c-5.327,2.813-10.95,5.131-16.798,6.735c-0.727,0.213-1.441,0.468-2.176,0.653l-2.209,0.543c-1.476,0.352-2.941,0.747-4.425,1.065
		l-4.479,0.841l-2.24,0.421l-2.261,0.313c-3.012,0.429-6.022,0.888-9.065,1.106l-4.553,0.422c-1.521,0.115-3.045,0.172-4.569,0.261
		c-12.192,0.633-24.446,0.398-36.703-0.221c12.166,1.581,24.461,2.473,36.78,2.16c12.296-0.335,24.69-1.65,36.603-5.181
		c5.966-1.688,11.755-4.077,17.22-7.058c5.436-3.026,10.54-6.759,14.791-11.346c2.16-2.255,4.037-4.771,5.727-7.387
		c1.625-2.664,3.024-5.456,4.131-8.36c1.047-2.927,1.831-5.937,2.294-8.991C941.159,1497.847,941.332,1494.74,940.986,1491.687z"/>
	<path style="fill:#CAF0FF;" d="M823.148,1581.056c13.358,2.993,26.947,4.986,40.605,6.194c13.659,1.207,27.42,1.566,41.149,0.722
		c13.693-0.936,27.478-2.977,40.459-7.801c6.475-2.388,12.713-5.562,18.225-9.747c5.467-4.208,10.207-9.469,13.241-15.627
		c-3.526,5.876-8.361,10.841-13.958,14.641c-5.562,3.861-11.76,6.722-18.161,8.906c-6.41,2.18-13.026,3.75-19.719,4.867
		c-6.693,1.129-13.457,1.868-20.246,2.279c-13.578,0.886-27.231,0.638-40.846-0.169c-6.808-0.421-13.612-0.986-20.405-1.701
		C836.692,1582.951,829.915,1582.065,823.148,1581.056z"/>
	<path style="fill:#333333;" d="M1199.564,733.292c0,0,19.246-14.238,59.926-8.323c40.68,5.915,46.696,28.592,46.492,60.244
		l-3.219,25.858c0,0-11.885-0.762-23.204-33.158c0,0-25.016,24.639-34.734,20.673s5.553-21.932,5.553-21.932
		s-41.308,39.73-68.773,37.4c0,0-19.299-51.839,2.531-67.949c0,0-15.43-0.51-15.994-3.7c-0.563-3.19,7.956-7.188,22.587-4.205
		c0,0-8.823-22.134-2.765-23.861C1194.022,712.614,1199.564,733.292,1199.564,733.292z"/>
	<path style="fill:#F99893;" d="M1261.19,810.5c1.685,2.578,3.134,5.286,4.455,8.058c1.325,2.772,2.491,5.622,3.42,8.592
		c0.433,1.497,0.828,3.015,0.975,4.658c0.022,0.417,0.029,0.842-0.012,1.29c-0.019,0.223-0.076,0.467-0.119,0.697
		c-0.093,0.253-0.148,0.498-0.322,0.756c-0.087,0.129-0.181,0.256-0.278,0.375l-0.235,0.214c-0.157,0.137-0.308,0.287-0.471,0.412
		c-0.331,0.239-0.655,0.492-0.998,0.696c-1.347,0.87-2.777,1.5-4.225,2.048c-1.457,0.527-2.931,0.982-4.445,1.277
		c2.732-1.382,5.488-2.756,7.817-4.53c0.296-0.216,0.551-0.463,0.819-0.697l0.368-0.367l0.178-0.181
		c0.011-0.037,0.026-0.068,0.046-0.096c0.176-0.301,0.18-1.07,0.092-1.733c-0.174-1.396-0.554-2.848-1-4.271
		c-0.859-2.87-1.932-5.711-2.966-8.569C1263.236,816.274,1262.169,813.417,1261.19,810.5z"/>
	<path style="fill:#FEB546;" d="M1399.105,1647.762L1399.105,1647.762c-40.254,0-72.885-32.632-72.885-72.885v-284.535h145.77
		v284.535C1471.99,1615.13,1439.358,1647.762,1399.105,1647.762z"/>
	<rect x="1051.93" y="1870.738" style="fill:#E03268;" width="646.523" height="91.336"/>
	<rect x="1051.93" y="1870.738" style="fill:#C4205B;" width="174.517" height="91.336"/>
	<path style="fill:#07085B;" d="M1887.49,1428.23c0,0,12.077-11.628-1.801-24.267c0,0,8.507-15.475-8.729-20.134
		c0,0-2.898-26.004-27.024-18.354c0,0-18.847-19.266-34.3-6.39c0,0-16.631-4.977-23.015,14.195c0,0-17.333,6.363-10.37,27.701
		c0,0-15.099,15.129-3.34,33.829c0,0-3.945,24.512,23.23,22.626c1.47,6.627,11.443,8.512,17.411,7.158c0,0,8.683,9.056,23.656-0.236
		c1.901,1.589,11.857,9.318,18.036,2.481c0,0,20.344,3.822,18.188-13.971C1879.435,1452.87,1892.995,1444.13,1887.49,1428.23z"/>
	<polygon style="fill:#FFC0BB;" points="1782.062,1709.265 1785.7,1940.903 1791.61,1957.618 1809.359,1940.903 1826.194,1703.331 	
		"/>
	<path style="fill:#FFC0BB;" d="M1888.041,1717.106h-44.408c0,0,20.902,222.414,20.75,223.797s7.49,11.374,7.49,11.374
		l16.168-11.374V1717.106z"/>
	<polygon style="fill:#FFC0BB;" points="1782.062,1709.265 1785.7,1940.903 1791.61,1957.618 1809.359,1940.903 1826.194,1703.331 	
		"/>
	<path style="fill:#FFC0BB;" d="M1888.041,1717.106h-44.408c0,0,20.902,222.414,20.75,223.797s7.49,11.374,7.49,11.374
		l16.168-11.374V1717.106z"/>
	<path style="fill:#282828;" d="M1771.444,1905.617c12.62,5.052,32.217,10.114,53.857,5.492l4.03-184.992l2.998-32.568
		c2.264,1.98,3.615,2.919,3.615,2.919l10.808,211.349c0,0,23.985,8.76,53.321,3.343c0.098-12.713-7.787-206.733-7.866-215.741
		c-0.574-65.058-20.685-74.579-20.685-74.579l-34.239-8.668l-7.517,1.296c-11.969-3.933-33.625-8.42-42.541,6.522
		c-12.631,21.168-11.889,86.419-11.889,86.419S1771.348,1896.661,1771.444,1905.617z"/>
	<path style="fill:#FFC0BB;" d="M1798.371,1554.7l-32.107-14.862l2.917,34.004c0,0-60.798-27.602-63.869-30.382
		c-1.023-0.926-2.191-3.355-3.313-6.198c-1.18-2.99-1.973-6.102-2.681-9.229c-1.068-4.72-5.104-8.5-6.464-9.731
		c-0.592-0.535-2.3-3.751-2.707-5.225c-0.275-0.996-1.758-0.916-1.914,0.104l-0.326,2.126c-0.32,2.085,0.408,4.241,0.874,5.393
		l-0.845-0.323l-1.399,14.301l1.716,12.504l9.619,7.244c0,0,84.712,60.977,92.459,53.012
		C1798.653,1598.879,1798.371,1554.7,1798.371,1554.7z"/>
	<path style="fill:#224887;" d="M1791.073,1482.77c0,0-6.578,1.564-16.093,13.339s-17.986,44.342-17.986,44.342l30.374,16.591
		l19.761-39.336L1791.073,1482.77z"/>
	<path style="opacity:0.5;fill:#F3FDFF;" d="M1877.129,1670.535c-3.204,1.182-6.363,2.459-9.49,3.81
		c-3.122,1.359-6.209,2.793-9.273,4.27c-3.066,1.474-6.107,2.996-9.121,4.568c-3.006,1.584-6.02,3.165-8.977,4.826l-0.237-0.567
		c2.237-0.479,4.48-0.8,6.742-1.036c2.261-0.228,4.534-0.319,6.805-0.321c2.271-0.007,4.543,0.118,6.794,0.392l1.686,0.221
		l1.674,0.298l0.835,0.15l0.825,0.197l1.648,0.4l-1.665-0.321l-0.831-0.162l-0.839-0.12l-1.676-0.238l-1.687-0.16
		c-0.561-0.063-1.124-0.09-1.688-0.117c-0.564-0.023-1.126-0.076-1.689-0.085l-1.692-0.032c-0.563-0.012-1.128,0.013-1.691,0.017
		c-2.255,0.044-4.506,0.204-6.745,0.45c-2.235,0.248-4.476,0.588-6.654,1.07l-2.021,0.447l1.783-1.015
		c2.962-1.686,5.951-3.313,8.987-4.86c3.032-1.554,6.092-3.059,9.175-4.514c3.092-1.441,6.228-2.792,9.383-4.093
		c1.588-0.63,3.176-1.258,4.787-1.826C1873.875,1671.581,1875.506,1671.064,1877.129,1670.535z"/>
	<path style="opacity:0.5;fill:#F3FDFF;" d="M1787.227,1669.244c1.623,0.529,3.254,1.046,4.853,1.647
		c1.611,0.569,3.199,1.196,4.786,1.826c3.156,1.301,6.292,2.651,9.383,4.093c3.084,1.455,6.143,2.96,9.175,4.514
		c3.037,1.548,6.026,3.175,8.988,4.86l1.783,1.015l-2.021-0.447c-2.18-0.482-4.419-0.822-6.654-1.07
		c-2.24-0.246-4.49-0.406-6.746-0.45c-0.563-0.004-1.127-0.028-1.69-0.017l-1.692,0.033c-0.563,0.008-1.125,0.061-1.689,0.084
		c-0.563,0.027-1.127,0.054-1.688,0.117l-1.687,0.16l-1.676,0.238l-0.839,0.12l-0.831,0.162l-1.665,0.321l1.647-0.4l0.825-0.197
		l0.836-0.15l1.673-0.298l1.687-0.221c2.251-0.273,4.523-0.398,6.794-0.392c2.271,0.002,4.544,0.094,6.805,0.322
		c2.262,0.235,4.505,0.557,6.742,1.035l-0.237,0.567c-2.957-1.661-5.971-3.242-8.977-4.825c-3.014-1.572-6.055-3.096-9.121-4.569
		c-3.064-1.477-6.151-2.91-9.274-4.27C1793.59,1671.703,1790.431,1670.426,1787.227,1669.244z"/>
	<path style="opacity:0.5;fill:#DAEEF7;" d="M1794.057,1631.671c2.779,0.489,5.574,0.887,8.373,1.247
		c2.799,0.364,5.604,0.684,8.412,0.95c5.618,0.543,11.255,0.903,16.897,1.021c2.821,0.059,5.644,0.064,8.464-0.004
		c2.82-0.08,5.638-0.232,8.45-0.459c2.81-0.246,5.613-0.566,8.397-1.016c2.782-0.453,5.547-1.02,8.273-1.739
		c-2.711,0.772-5.467,1.393-8.245,1.9c-2.783,0.483-5.589,0.833-8.402,1.11c-2.814,0.267-5.64,0.41-8.465,0.507
		c-2.826,0.078-5.654,0.084-8.48,0.033c-5.651-0.146-11.298-0.501-16.917-1.099c-2.809-0.299-5.612-0.646-8.408-1.044
		C1799.613,1632.664,1796.826,1632.213,1794.057,1631.671z"/>
	<path style="fill:#F3FDFF;" d="M1857.646,1642.163c0.116,0.328,0.293,0.633,0.452,0.944l0.487,0.928l0.986,1.852l1.646,3.063
		l4.695,8.152c0.646,1.237,6.81,11.959,8.269,14.357c-1.814-2.165-4.001-4.309-5.48-6.694c-0.745-1.191-1.438-2.411-2.142-3.625
		c-0.69-1.221-1.354-2.454-2.019-3.688c-1.301-2.48-2.558-4.982-3.727-7.524c-0.59-1.269-1.153-2.549-1.7-3.836
		c-0.267-0.646-0.537-1.292-0.789-1.944C1858.08,1643.494,1857.807,1642.845,1857.646,1642.163z"/>
	<path style="fill:#3660AC;" d="M1917.413,1520.676c-13.811-16.66-29.764-34.744-43.716-41.784
		c-5.341-2.695-18.006-3.228-25.372-4.435c0,0-19.21-2.371-38.152,0.135c-10.219,3.742-28.071,10.07-28.305,16.128
		c-1.167,30.244-1.509,53.427-1.344,71.204c0,0.057-0.507,64.449-0.039,78.202c0,0,70.007,15.091,105.815,6.02
		c0,0,5.914-84.227-2.58-106.972l3.619,4.608C1887.341,1543.781,1901.746,1540.504,1917.413,1520.676z"/>
	<path style="fill:#FFC0BB;" d="M1915.302,1523.296c-9.499,11.552-20.011,17.681-25.275,19.612l33.854,40.55l-61.93,66.766
		l10.9,18.988c8.611-4.179,10.554-20.021,10.554-20.021s76.645-51.247,76.645-63.504
		C1960.05,1569.266,1915.302,1523.296,1915.302,1523.296z"/>
	<path style="fill:#FBF9EB;" d="M1915.845,1522.495c-0.533,0.597-1.011,1.233-1.568,1.808l-1.642,1.742l-0.813,0.874l-0.862,0.829
		l-1.719,1.656c-0.58,0.545-1.192,1.055-1.786,1.583c-1.166,1.08-2.471,2.004-3.693,3.013c-2.547,1.901-5.225,3.619-8.01,5.133
		l-1.048,0.559c-0.353,0.181-0.714,0.345-1.069,0.518c-0.709,0.354-1.436,0.666-2.163,0.975c-0.36,0.162-0.731,0.296-1.098,0.439
		c-0.366,0.145-0.731,0.294-1.103,0.418c-0.502,0.183-1.026,0.355-1.529,0.505l-3.705-4.433l-4.212-4.946
		c-2.794-3.309-5.657-6.563-8.492-9.838c-2.868-3.25-5.735-6.5-8.65-9.713s-5.843-6.415-8.857-9.548
		c2.571,3.485,5.229,6.902,7.899,10.309c2.672,3.406,5.39,6.775,8.107,10.145c2.75,3.344,5.474,6.708,8.266,10.019l4.166,4.982
		l4.214,4.944l0.461,0.541l0.662-0.174c0.886-0.233,1.649-0.494,2.443-0.787c0.786-0.287,1.556-0.603,2.31-0.947
		s1.505-0.692,2.233-1.081c0.365-0.19,0.736-0.373,1.098-0.57l1.073-0.61c2.861-1.628,5.517-3.557,8.036-5.617l1.824-1.617
		c0.616-0.529,1.187-1.105,1.758-1.679c0.568-0.576,1.155-1.134,1.707-1.724l1.604-1.812l0.797-0.906l0.746-0.947l1.477-1.901
		c0.953-1.288,1.811-2.642,2.706-3.959L1915.845,1522.495z"/>
	<path style="fill:#FFC0BB;" d="M1817.417,1473.905c0,0,13.9,8.239,24.729,0l0,0l-2.554-20.11l-21.546-4.439L1817.417,1473.905
		L1817.417,1473.905z"/>
	<path style="fill:#FC8D84;" d="M1817.71,1462.473l0.337-13.117l21.858,6.798l0.614,4.916
		C1835.67,1462.83,1826.452,1464.969,1817.71,1462.473z"/>
	<path style="fill:#F99893;" d="M1801.999,1416.586c0.584,3.939-1.571,7.475-4.814,7.896c-3.243,0.421-6.346-2.432-6.93-6.371
		s1.571-7.475,4.814-7.896S1801.415,1412.646,1801.999,1416.586z"/>
	<path style="fill:#FFC0BB;" d="M1797.696,1437.691c-0.521-1.767-0.877-3.592-1.058-5.453c-0.584-5.025-0.223-10.115,0.442-14.466
		c0.143-0.934,0.229-1.873,0.298-2.815c0.277-3.805,1.283-7.658,3.187-11.404c6.123-12.052,19.981-18.807,33.684-16.389
		c18.459,3.256,29.883,20.871,25.48,37.994c2.188-0.551,4.41-0.247,6.101,1.054c3.242,2.494,3.3,7.68,0.128,11.582
		c-3.173,3.902-8.373,5.043-11.615,2.548c-0.45-0.347-0.833-0.749-1.16-1.188c-5.28,14.184-20.506,22.329-35.237,18.373
		c-7.204-1.935-13.023-6.427-16.775-12.249c-0.261-0.35-0.526-0.75-0.797-1.205
		C1799.188,1442.074,1798.322,1439.92,1797.696,1437.691z"/>
	<path style="fill:#333333;" d="M1831.46,1420.799c-0.394,1.429,0.484,2.907,1.96,3.304c1.477,0.396,2.991-0.44,3.385-1.868
		c0.394-1.429-0.484-2.907-1.96-3.304S1831.854,1419.371,1831.46,1420.799z"/>
	<path style="fill:#333333;" d="M1808.11,1416.093c-0.394,1.428,0.484,2.907,1.96,3.304c1.477,0.396,2.991-0.44,3.385-1.869
		c0.394-1.428-0.484-2.907-1.96-3.303C1810.02,1413.828,1808.504,1414.664,1808.11,1416.093z"/>
	<path style="fill:#07085B;" d="M1829.647,1414.805c1.452-0.17,2.816-0.254,4.149-0.201c1.33,0.05,2.608,0.262,3.818,0.652
		c1.199,0.404,2.385,0.913,3.458,1.681l0.424,0.264c0.141,0.091,0.259,0.208,0.396,0.305l0.813,0.618
		c0.543,0.425,1.026,0.919,1.636,1.355c-0.235-0.668-0.522-1.336-0.886-1.967c-0.429-0.579-0.797-1.241-1.366-1.733
		c-1.02-1.102-2.41-1.893-3.875-2.372c-1.476-0.476-3.063-0.573-4.545-0.324C1832.194,1413.348,1830.773,1413.883,1829.647,1414.805
		z"/>
	<path style="fill:#07085B;" d="M1818.748,1412.447c-0.638-1.303-1.705-2.377-2.937-3.228c-1.243-0.839-2.728-1.405-4.269-1.582
		c-1.533-0.169-3.129-0.024-4.518,0.556c-0.725,0.213-1.337,0.663-1.97,1.013c-0.595,0.423-1.136,0.912-1.631,1.422
		c0.737-0.145,1.385-0.395,2.057-0.557l0.999-0.226c0.166-0.031,0.322-0.089,0.488-0.113l0.496-0.064
		c1.298-0.256,2.589-0.229,3.849-0.101c1.264,0.144,2.516,0.479,3.746,0.983C1816.294,1411.053,1817.499,1411.693,1818.748,1412.447
		z"/>
	<path style="fill:#F99893;" d="M1823.031,1413.114c0.095,1.937-0.136,3.86-0.6,5.753c-0.234,0.95-0.546,1.882-0.973,2.805
		c-0.445,0.911-0.977,1.829-1.897,2.595l-0.383,0.262l-0.339,0.222c-0.146,0.108-0.339,0.179-0.454,0.307
		c-0.281,0.218-0.494,0.482-0.636,0.777c-0.325,0.584-0.229,1.352,0.053,2.096c0.638,1.521,2.205,2.721,3.943,3.637
		c-1.95-0.199-4.07-1.073-5.261-2.999c-0.583-0.934-0.86-2.222-0.399-3.398c0.113-0.291,0.251-0.571,0.446-0.813
		c0.169-0.266,0.394-0.468,0.617-0.675c0.218-0.222,0.485-0.344,0.729-0.514c0.152-0.091,0.182-0.127,0.262-0.182l0.213-0.146
		c0.571-0.458,1.063-1.195,1.502-1.955c0.461-0.762,0.791-1.622,1.173-2.464C1821.728,1416.703,1822.353,1414.922,1823.031,1413.114
		z"/>
	<path style="fill:#FFFFFF;" d="M1810.857,1433.487c0.358,3.396,3.94,6.474,8.697,7.205s9.094-1.128,10.449-4.261L1810.857,1433.487
		z"/>
	<polygon style="fill:#F3FDFF;" points="1677.243,1330.791 1698.794,1815.186 1703.145,1815.066 1681.597,1330.764 	"/>
	<path style="fill:#FFC0BB;" d="M1679.588,1533.631c-0.047-0.688,0.151-2.868,0.249-3.336c0.271-1.301,1.257-2.35,2.563-2.745
		l1.485-0.45l0.133,3.34l0,0c-0.123,2.549-0.175,2.37,3.361,3.905c5.039,2.189,2.93,4.829,2.93,4.829s-1.399,1.876-7.564-1.207
		C1682.744,1537.967,1679.781,1536.414,1679.588,1533.631z"/>
	<path style="fill:#FFC0BB;" d="M1679.063,1536.492c-0.045-0.654,0.145-2.73,0.237-3.176c0.258-1.238,1.196-2.236,2.439-2.613
		l1.414-0.428l0.127,3.179v0.001c-0.118,2.426-0.167,2.256,3.199,3.718c4.798,2.084,2.789,4.597,2.789,4.597
		s-1.332,1.786-7.201-1.148C1682.068,1540.621,1679.247,1539.143,1679.063,1536.492z"/>
	<path style="fill:#FFC0BB;" d="M1679.838,1540.304c-0.039-0.554,0.121-2.311,0.2-2.688c0.218-1.048,1.013-1.892,2.063-2.211
		l1.197-0.362l0.106,2.69l0,0c-0.1,2.053-0.141,1.909,2.707,3.146c4.06,1.764,2.36,3.89,2.36,3.89s-1.127,1.511-6.094-0.972
		C1682.379,1543.797,1679.993,1542.546,1679.838,1540.304z"/>
	<path style="fill:#FFC0BB;" d="M1680.683,1529.526c-0.048-0.688,0.151-2.868,0.249-3.336c0.271-1.3,1.257-2.349,2.563-2.744
		l1.486-0.45l0.132,3.34h0.001c-0.125,2.549-0.176,2.369,3.359,3.905c5.041,2.188,2.931,4.829,2.931,4.829s-1.399,1.875-7.565-1.207
		C1683.838,1533.863,1680.876,1532.311,1680.683,1529.526z"/>
	<path style="fill:#F99893;" d="M1685.113,1526.336c0.01,0.56-0.023,1.133,0.08,1.67c0.099,0.552,0.584,0.873,1.096,1.105
		c1.027,0.492,2.121,0.852,3.181,1.375c0.255,0.146,0.518,0.283,0.769,0.441c0.235,0.182,0.495,0.33,0.705,0.548
		c0.454,0.388,0.835,0.895,1.033,1.484c0.208,0.591,0.152,1.259-0.099,1.827c-0.065,0.144-0.136,0.279-0.233,0.418
		c-0.135,0.175-0.273,0.253-0.418,0.346c-0.293,0.168-0.604,0.244-0.913,0.305c-0.62,0.088-1.233,0.054-1.82-0.053
		c-0.593-0.095-1.16-0.259-1.722-0.436c-1.117-0.382-2.17-0.844-3.211-1.415c-0.991-0.641-1.858-1.472-2.42-2.497
		c-0.268-0.515-0.442-1.076-0.497-1.646c-0.047-0.285,0-0.567,0.014-0.851l0.069-0.843l0.018,0.842
		c0.008,0.279-0.018,0.562,0.05,0.832c0.096,0.544,0.303,1.064,0.593,1.533c0.577,0.942,1.445,1.705,2.405,2.265
		c1.007,0.476,2.065,0.96,3.144,1.299c1.075,0.328,2.221,0.581,3.282,0.421c0.258-0.047,0.518-0.108,0.729-0.227
		c0.098-0.058,0.209-0.134,0.247-0.188c0.067-0.093,0.131-0.207,0.184-0.32c0.209-0.459,0.264-0.983,0.103-1.465
		c-0.155-0.48-0.466-0.926-0.876-1.284c-0.182-0.2-0.431-0.34-0.64-0.516c-0.228-0.159-0.472-0.299-0.707-0.45
		c-0.982-0.543-2.076-0.955-3.101-1.509c-0.254-0.145-0.51-0.304-0.723-0.521c-0.218-0.214-0.351-0.508-0.389-0.796
		C1684.975,1527.453,1685.063,1526.896,1685.113,1526.336z"/>
	<path style="fill:#F99893;" d="M1689.521,1535.604c0.702,0.511,1.316,1.272,1.365,2.208c0.013,0.458-0.104,0.917-0.336,1.323
		c-0.048,0.094-0.145,0.225-0.246,0.299c-0.099,0.08-0.202,0.149-0.311,0.202c-0.217,0.117-0.446,0.185-0.678,0.24
		c-0.933,0.192-1.868,0.061-2.749-0.142c-0.881-0.22-1.733-0.52-2.556-0.874c-0.417-0.167-0.812-0.38-1.217-0.567
		c-0.426-0.198-0.797-0.468-1.153-0.748c-0.696-0.575-1.33-1.255-1.729-2.072c-0.212-0.401-0.338-0.84-0.429-1.279
		c-0.021-0.223-0.064-0.447-0.055-0.668l0.027-0.66c0.089-0.865,0.184-1.725,0.381-2.57c-0.067,0.859-0.106,1.724-0.1,2.58
		l0.014,0.635c0.003,0.211,0.057,0.412,0.088,0.616c0.109,0.399,0.247,0.792,0.465,1.149c0.418,0.719,1.005,1.345,1.679,1.861
		c0.34,0.252,0.688,0.505,1.068,0.674c0.397,0.179,0.785,0.382,1.191,0.542c0.798,0.355,1.622,0.646,2.458,0.873
		c0.833,0.225,1.704,0.344,2.528,0.233c0.395-0.069,0.829-0.21,1.013-0.504c0.221-0.336,0.347-0.737,0.365-1.142
		c0.018-0.407-0.091-0.819-0.288-1.193C1690.118,1536.244,1689.825,1535.918,1689.521,1535.604z"/>
	<path style="fill:#F99893;" d="M1689.531,1539.684c0.296,0.557,0.295,1.259,0.036,1.862c-0.068,0.144-0.139,0.309-0.291,0.437
		c-0.136,0.123-0.288,0.206-0.444,0.28c-0.316,0.147-0.653,0.203-0.987,0.247c-1.351,0.112-2.633-0.283-3.84-0.721
		c-0.597-0.244-1.188-0.5-1.761-0.791c-0.601-0.283-1.13-0.685-1.592-1.137c-0.462-0.455-0.869-0.966-1.163-1.537
		c-0.275-0.578-0.446-1.207-0.426-1.832c0.202,1.238,0.954,2.277,1.89,3.056c0.478,0.38,0.971,0.752,1.537,0.98
		c0.565,0.27,1.143,0.516,1.726,0.743c0.585,0.221,1.176,0.428,1.779,0.57c0.6,0.162,1.215,0.244,1.819,0.242
		c0.299-0.016,0.604-0.041,0.877-0.144c0.135-0.051,0.269-0.111,0.375-0.193c0.103-0.064,0.171-0.193,0.25-0.32
		C1689.628,1540.921,1689.704,1540.283,1689.531,1539.684z"/>
	<path style="fill:#F99893;" d="M1688.215,1542.254c0.426,0.379,0.741,0.928,0.745,1.539c0.003,0.303-0.075,0.603-0.208,0.881
		c-0.034,0.07-0.069,0.138-0.119,0.209c-0.07,0.087-0.132,0.136-0.201,0.188c-0.136,0.101-0.284,0.169-0.435,0.226
		c-0.606,0.218-1.237,0.19-1.83,0.118c-0.597-0.083-1.171-0.241-1.728-0.434c-0.556-0.196-1.094-0.424-1.618-0.681
		c-0.255-0.138-0.528-0.244-0.786-0.42c-0.251-0.164-0.485-0.347-0.703-0.547c-0.877-0.772-1.536-1.883-1.494-3.029
		c0.19,1.125,0.928,2.026,1.787,2.701c0.218,0.169,0.447,0.324,0.682,0.465c0.223,0.139,0.495,0.233,0.752,0.355
		c0.514,0.235,1.04,0.453,1.574,0.632c0.528,0.194,1.072,0.345,1.617,0.438c0.541,0.098,1.104,0.124,1.602-0.008
		c0.123-0.035,0.243-0.08,0.342-0.143c0.049-0.028,0.101-0.071,0.122-0.092c0.035-0.042,0.073-0.096,0.107-0.149
		c0.135-0.218,0.229-0.467,0.259-0.726c0.036-0.258,0.009-0.528-0.075-0.787C1688.52,1542.731,1688.375,1542.49,1688.215,1542.254z"
		/>
	<g>
		<ellipse style="fill:#FF5B7E;" cx="1684.329" cy="1366.029" rx="85.457" ry="95.177"/>
		<ellipse style="fill:#CCF6FE;" cx="1684.329" cy="1366.029" rx="78.318" ry="87.227"/>
		<rect x="1674.938" y="1429.708" style="fill:#FFC0BB;" width="20.365" height="22.646"/>
		<path style="fill:#F99893;" d="M1695.304,1443.284v-13.576h-20.365v11.55C1679.323,1443.877,1685.814,1445.386,1695.304,1443.284z
			"/>
		<path style="fill:#FFC0BB;" d="M1727.413,1389.176c-2.125-1.166-4.591-0.958-6.823,0.3c0.767-22.345-15.621-41.139-36.261-40.345
			c-20.641-0.794-37.028,18-36.261,40.345c-2.233-1.258-4.699-1.466-6.824-0.3c-4.076,2.236-5.344,8.642-2.83,14.309
			c2.514,5.666,7.856,8.447,11.933,6.211c0.566-0.311,1.072-0.708,1.527-1.166c2.336,18.473,16.194,32.321,32.455,32.063
			c16.26,0.258,30.118-13.591,32.454-32.063c0.455,0.458,0.961,0.855,1.527,1.166c4.076,2.236,9.419-0.545,11.933-6.211
			C1732.757,1397.817,1731.49,1391.412,1727.413,1389.176z"/>
		<path style="fill:#333333;" d="M1659.531,1340.277c0,0,10.22-9.634,33.45-8.078c23.229,1.556,27.651,15.058,28.968,34.336
			l-1.359,22.94c0,0-6.031-6.905-13.886-26.057c0,0-13.006,16.256-18.671,14.33s2.143-13.629,2.143-13.629
			s-26.499,25.394-42.107,25.355c0,0-8.26-29.72,3.334-40.622c0,0-8.733,0.465-9.195-1.449c-0.462-1.913,4.166-4.775,12.56-3.694
			c0,0-5.981-13.03-2.641-14.386C1655.468,1327.969,1659.531,1340.277,1659.531,1340.277z"/>
		<path style="fill:#FFFFFF;" d="M1697.654,1415.57c-0.896,4.479-5.5,8-11.144,8.191c-5.644,0.192-10.433-3.009-11.572-7.419
			L1697.654,1415.57z"/>
		<path style="fill:#FFC0BB;" d="M1682.325,1450.653c-0.048,0-7.387,1.7-7.387,1.7v0.275c3.079,0.41,6.212,0.627,9.391,0.627
			c3.725,0,7.388-0.297,10.975-0.857v-0.045l-1.172-1.021C1694.132,1451.333,1682.373,1450.653,1682.325,1450.653z"/>
		<g>
			<path style="fill:#07085B;" d="M1649.207,1322.368l-8.57-20.886l3.448-0.086l4.296,10.861c1.592,4.039,2.24,5.963,2.615,7.176
				l0.053-0.001c0.272-1.078,0.95-3.021,2.259-7.02l4.011-11.348l3.348-0.084l-7.852,21.297L1649.207,1322.368z"/>
			<path style="fill:#07085B;" d="M1682.106,1310.93c0.119,5.933-3.368,11.146-9.846,11.309
				c-6.175,0.154-10.054-4.632-10.178-10.811c-0.118-5.838,3.684-11.02,9.843-11.174
				C1678.107,1300.1,1681.989,1305.102,1682.106,1310.93z M1665.393,1311.269c0.089,4.405,2.492,8.223,6.944,8.111
				c4.436-0.11,6.546-4.003,6.459-8.309c-0.085-4.218-2.437-8.071-6.96-7.958C1667.594,1303.22,1665.307,1307.029,1665.393,1311.269
				z"/>
			<path style="fill:#07085B;" d="M1690.586,1303.13l-7.087,0.178l-0.059-2.896l17.308-0.434l0.059,2.896l-7.075,0.177l0.367,18.194
				l-3.146,0.078L1690.586,1303.13z"/>
			<path style="fill:#07085B;" d="M1718.387,1311.034l-11.17,0.279l0.136,6.706l12.344-0.309l-0.343,2.903l-15.074,0.377
				l-0.425-21.09l14.89-0.372l0.059,2.893l-11.759,0.294l0.115,5.704l11.169-0.279L1718.387,1311.034z"/>
		</g>
	</g>
	<path style="fill:#07085B;" d="M1860.645,1387.896l0.851,19.393l-45.341-10.928c0,0-4.96,4.419-5.711,4.327
		c-0.75-0.093-6.514-2.537-6.291-3.362c0.224-0.826,15.951-21.719,15.951-21.719s15.031,3.399,16.373,3.762
		C1837.818,1379.731,1860.645,1387.896,1860.645,1387.896z"/>
	<path style="fill:#FF5B7E;" d="M1860.668,1418.25c0,0-23.014-20.342-61.289-12.062c0,0-0.041-0.155-0.095-0.434
		c-1.07-5.53,2.393-10.901,7.827-12.38c8.758-2.382,27.795-4.279,52.427,12.362c4.056,2.74,4.854,8.525,1.523,12.112
		C1860.936,1417.984,1860.805,1418.118,1860.668,1418.25z"/>
	
		<rect x="2089.55" y="1465.678" transform="matrix(0.9913 -0.1315 0.1315 0.9913 -177.7225 289.0501)" style="fill:#FFC0BB;" width="20.192" height="48.902"/>
	<path style="fill:#FFC0BB;" d="M2132.389,1418.705c-2.222-0.751-4.617-0.246-6.661,1.152
		c-1.859-19.788-20.138-34.215-40.299-30.828c-20.349,1.986-34.233,20.68-30.87,40.268c-2.338-0.817-4.782-0.68-6.73,0.624
		c-3.739,2.501-4.234,8.311-1.105,12.976c3.129,4.666,8.697,6.421,12.436,3.92c0.52-0.348,0.97-0.764,1.363-1.227
		c4.451,15.973,19.669,26.371,35.596,24.027c15.987-1.89,27.969-15.896,28.102-32.477c0.5,0.345,1.043,0.63,1.635,0.829
		c4.263,1.44,9.18-1.706,10.984-7.025C2138.643,1425.624,2136.65,1420.145,2132.389,1418.705z"/>
	<path style="fill:#333333;" d="M2082.08,1432.765c0.309,1.638-0.77,3.216-2.41,3.525s-3.221-0.768-3.529-2.405
		c-0.31-1.637,0.77-3.215,2.409-3.525C2080.19,1430.051,2081.771,1431.127,2082.08,1432.765z"/>
	<path style="fill:#333333;" d="M2107.898,1429.623c0.309,1.637-0.77,3.216-2.41,3.525c-1.64,0.309-3.221-0.768-3.529-2.405
		c-0.31-1.638,0.77-3.216,2.41-3.525C2106.009,1426.908,2107.589,1427.985,2107.898,1429.623z"/>
	<path style="fill:#333333;" d="M2084.554,1426.208c-1.567-0.32-3.047-0.539-4.503-0.601c-1.451-0.064-2.861,0.056-4.21,0.384
		c-1.339,0.343-2.672,0.805-3.904,1.566l-0.483,0.257c-0.16,0.088-0.299,0.209-0.457,0.305l-0.938,0.617
		c-0.628,0.427-1.196,0.937-1.897,1.369c0.312-0.729,0.68-1.452,1.127-2.126c0.516-0.611,0.971-1.32,1.632-1.821
		c1.202-1.143,2.783-1.902,4.419-2.307c1.647-0.398,3.384-0.362,4.978,0.054C2081.902,1424.338,2083.404,1425.07,2084.554,1426.208z
		"/>
	<path style="fill:#333333;" d="M2096.619,1424.562c0.802-1.404,2.053-2.512,3.465-3.354c1.424-0.827,3.088-1.327,4.781-1.385
		c1.685-0.049,3.411,0.26,4.875,1.039c0.771,0.305,1.4,0.866,2.061,1.316c0.611,0.53,1.16,1.128,1.655,1.746
		c-0.792-0.229-1.476-0.567-2.194-0.81l-1.068-0.345c-0.179-0.05-0.344-0.129-0.522-0.171l-0.534-0.117
		c-1.393-0.403-2.8-0.491-4.182-0.463c-1.388,0.045-2.778,0.307-4.159,0.758C2099.41,1423.227,2098.043,1423.833,2096.619,1424.562z
		"/>
	<path style="fill:#040744;" d="M2123.738,1380.847c-7.305-11.667-33.576-17.96-49.301-13.667c0,0,0.479,4.06,2.096,6.135
		c-1.884-1.85-9.108-7.287-24.627-1.392c0,0,2.85,4.952,4.297,6.777c0,0-5.602,0.714-10.452-0.887c0,0-3.927,9.249,1.124,17.019
		l-5.71-1.449c0,0,4.257,18.602,7.989,29.854l0,0c0.688,3.466,1.292,5.652,1.292,5.652c0.293-0.031,3.391-0.894,8.24,2.855
		c0.261-0.179,0.534-0.366,0.841-0.576c3.336-2.284,1.915-18.507,6.739-25.734c9.249-5.446,30.784-9.011,38.758-7.552
		c9.3,1.702,12.448,23.443,16.917,25.008c0.351,0.123,0.664,0.232,0.962,0.337c2.831-5.104,6.92-4.82,7.211-4.867
		C2130.114,1418.359,2131.044,1392.514,2123.738,1380.847z"/>
	<path style="fill:#F99893;" d="M2090.565,1422.744c1.245,1.521,2.353,3.141,3.381,4.81c1.032,1.669,1.968,3.397,2.763,5.22
		c0.378,0.92,0.732,1.856,0.939,2.889c0.043,0.263,0.076,0.532,0.081,0.819c0.004,0.143-0.016,0.302-0.027,0.45
		c-0.041,0.167-0.06,0.326-0.151,0.502c-0.047,0.088-0.098,0.174-0.15,0.256l-0.135,0.152c-0.09,0.099-0.176,0.203-0.271,0.294
		c-0.193,0.175-0.382,0.357-0.585,0.511c-0.795,0.645-1.66,1.144-2.541,1.592c-0.888,0.435-1.792,0.826-2.732,1.118
		c1.64-1.064,3.295-2.126,4.652-3.413c0.172-0.157,0.317-0.332,0.473-0.498l0.207-0.259l0.102-0.127
		c0.005-0.025,0.012-0.046,0.023-0.065c0.091-0.204,0.04-0.693-0.062-1.107c-0.206-0.875-0.548-1.771-0.929-2.645
		c-0.743-1.763-1.62-3.492-2.474-5.235C2092.264,1426.268,2091.389,1424.528,2090.565,1422.744z"/>
	<path style="fill:#FFFFFF;" d="M2102.78,1446.979c-0.33,3.083-3.507,5.835-7.713,6.44c-4.206,0.604-8.03-1.142-9.217-4.006
		L2102.78,1446.979z"/>
	<path style="fill:#FFC0BB;" d="M2073.31,1480.109l49.248-6.532l-10.437,23.727c0,0-21.937,3.933-24.102,3.196
		C2085.855,1499.765,2073.31,1480.109,2073.31,1480.109z"/>
	<path style="fill:#282828;" d="M2061.11,1632.666c0,0-21.779,194.244-18.247,261.936l38.469,4.585l40.063-224.729l5.069,0.196
		l25.807,226.029h34.925c0,0,5.766-225.638-13.07-289.208C2155.289,1547.904,2061.11,1632.666,2061.11,1632.666z"/>
	<path style="fill:#FFC0BB;" d="M2074.65,1909.079l-0.796,28.134l-18.676,13.541c0,0-7.089-13.513-6.913-15.159
		c0.175-1.646-0.007-33.911-0.007-33.911L2074.65,1909.079z"/>
	<path style="fill:#FFC0BB;" d="M2158.767,1909.079l0.796,28.134l18.677,13.541c0,0,6.112-13.513,5.937-15.159
		c-0.175-1.646,0.982-33.911,0.982-33.911L2158.767,1909.079z"/>
	<path style="fill:#444444;" d="M2041.758,1892.077l40.475,4.823c1.116,0.134,1.886,1.186,1.674,2.29l-2.739,14.27
		c-0.194,1.013-1.147,1.695-2.169,1.555l-37.906-5.238c-0.968-0.134-1.685-0.967-1.672-1.943l0.171-13.855
		C2039.605,1892.826,2040.615,1891.94,2041.758,1892.077z"/>
	<path style="fill:#FFC0BB;" d="M2017.685,1518.698l12.497-36.63l-10.393-2.323c-22.02-0.667-42.793-10.949-46.149-14.444
		c-7.12-7.414,18.004-57.039,18.004-57.039l-19.443-3.933c0,0-44.722,59.936-25.641,80.416
		c19.08,20.481,65.803,33.461,65.803,33.461L2017.685,1518.698z"/>
	<path style="fill:#FFC0BB;" d="M2186.224,1496.344l-21.613-32.106l9.427-4.951c21.085-6.384,38.459-21.727,40.789-25.976
		c4.94-9.014-32.251-50.374-32.251-50.374l17.745-8.865c0,0,58.801,46.205,45.719,70.952s-54.805,49.457-54.805,49.457
		L2186.224,1496.344z"/>
	<path style="fill:#444444;" d="M2190.595,1893.156l-40.474,4.823c-1.116,0.134-1.886,1.186-1.674,2.29l2.739,14.27
		c0.194,1.013,1.147,1.695,2.169,1.555l37.906-5.238c0.968-0.134,1.685-0.967,1.672-1.943l-0.172-13.855
		C2192.748,1893.905,2191.738,1893.02,2190.595,1893.156z"/>
	<path style="fill:#FEB546;" d="M2195.111,1496.012l-20.793-39.175c-12.777,5.802-32.754,11.016-42.966,13.486
		c-4.231,1.023-8.271,2.731-11.965,5.034c-0.139,0.086-0.276,0.172-0.413,0.257c-12.469,7.732-27.623,9.743-41.677,5.528
		c-0.153-0.047-0.31-0.094-0.465-0.141c-4.167-1.26-8.513-1.856-12.864-1.741c-10.504,0.276-31.148,0.451-44.996-1.819
		l-9.861,43.241c21.196,4.538,40.363,3.596,40.363,3.596l6.28,124.454l0,0c42.94,3.956,86.222-1.704,126.7-16.569l1.006-0.37
		l-26.381-121.787C2157.08,1510.006,2175.831,1505.918,2195.111,1496.012z"/>
	<path style="fill:#FFFFFF;" d="M2232.309,1369.86l-301.103,39.938c-6.222,0.825-11.934-3.55-12.759-9.771l-21.217-159.959
		c-0.825-6.222,3.549-11.934,9.771-12.759l301.103-39.938c6.222-0.825,11.934,3.55,12.759,9.771l21.217,159.959
		C2242.904,1363.322,2238.529,1369.035,2232.309,1369.86z"/>
	<path style="fill:#FFC0BB;" d="M1993.307,1401.529c0,0,5.587-2.222,5.74-6.844c0.154-4.623,3.252-2.478,3.518-0.467
		c0.268,2.01,3.527,11.169-10.921,14.043c-14.449,2.873-19.443-3.933-19.443-3.933L1993.307,1401.529z"/>
	<path style="fill:#FFC0BB;" d="M2179.213,1376.871c0,0-5.972-0.688-7.326-5.111c-1.354-4.423-3.784-1.543-3.518,0.467
		s-0.493,11.702,14.205,10.71s17.745-8.864,17.745-8.864L2179.213,1376.871z"/>
	
		<rect x="1920.818" y="1238.731" transform="matrix(0.9913 -0.1315 0.1315 0.9913 -145.682 282.0403)" style="fill:#CFE4FF;" width="284.118" height="10.899"/>
	
		<rect x="1925.208" y="1271.835" transform="matrix(0.9913 -0.1315 0.1315 0.9913 -149.9963 282.904)" style="fill:#CFE4FF;" width="284.119" height="10.9"/>
	
		<rect x="1929.599" y="1304.941" transform="matrix(0.9913 -0.1315 0.1315 0.9913 -154.3109 283.7686)" style="fill:#CFE4FF;" width="284.119" height="10.899"/>
	
		<rect x="1979.769" y="1338.046" transform="matrix(0.9913 -0.1315 0.1315 0.9913 -158.6275 284.6376)" style="fill:#CFE4FF;" width="192.561" height="10.9"/>
	<path style="fill:#06052D;" d="M2442.315,1983.88H262.445c-6.268,0-11.349-5.081-11.349-11.349l0,0
		c0-6.269,5.081-11.35,11.349-11.35h2179.871c6.268,0,11.349,5.081,11.349,11.35l0,0
		C2453.664,1978.799,2448.583,1983.88,2442.315,1983.88z"/>
	<path style="fill:#FFC0BB;" d="M596.586,1447.687l1.004,14.302c0,0,22.471,6.329,22.929,6.146s5.421-3.104,5.421-3.104
		l-0.596-6.268c0,0-0.262-5.922,0.059-7.252c0.321-1.33-25.063-6.489-25.063-6.489L596.586,1447.687z"/>
	<path style="fill:#EF9D30;" d="M627.871,1465.705c0,0,61.513,17.924,89.105,73.372c2.673,5.37,1.991,11.812-1.813,16.45
		c-8.375,10.215-27.003,28.043-61.916,40.234c0,0-6.538-2.18-7.355-10.624c0,0,33.233-30.237,41.678-37.319l-46.581-36.502
		L627.871,1465.705z"/>
	<path style="fill:#FFC0BB;" d="M643.776,1591.708l10.791-7.274l5.341,8.86c0,0-7.45,27.651-8.203,35.307c0,0-2.717,0.86-3.096-0.72
		C648.23,1626.302,643.776,1591.708,643.776,1591.708z"/>
	<path style="fill:#07085B;" d="M576.322,1413.117c0,0-6.971-28.602,9.635-39.314c16.606-10.713,34.204-9.521,46.192-3.103
		s19.165,28.796,13.791,41.583l-39.789-12.209L576.322,1413.117z"/>
	<polygon style="fill:#FFC0BB;" points="642.858,1942.768 635.699,1918.521 658.94,1916.055 660.355,1917.65 664.253,1939.528 
		653.273,1950.597 	"/>
	<polygon style="fill:#FFC0BB;" points="497.372,1912.578 509.455,1890.37 527.633,1905.061 527.505,1907.189 514.79,1925.415 
		499.201,1925.478 	"/>
	<path style="fill:#FFC0BB;" d="M472.244,1415.472c-0.314,0.549-1.114,0.536-1.4-0.027c-2.22-4.366-9.295-18.063-10.535-17.751
		c-1.474,0.372,4.549,12.764,3.56,13.771c-0.99,1.006-6.56-11.23-8.071-10.579c-1.512,0.65,3.941,11.638,3.4,12.134
		c-0.542,0.497-6.891-9.471-8.01-9.621c-1.119-0.15,4.365,11.314,3.879,12.104c-0.486,0.789-6.901-5.864-7.536-5.38
		s-1.139,0.701,9.012,19.819l4.317,7.355l6.768,4.104l7.604-5.718c0,0,4.365-27.515,3.52-28.293
		C477.946,1406.646,477.077,1407.019,472.244,1415.472z"/>
	<path style="fill:#282828;" d="M575.414,1600.269c0,0-33.069,42.642-25.237,110.521c7.832,67.878,6.092,92.245,6.092,92.245
		s-42.642,39.16-55.695,95.726c0,0,18.71,13.054,31.329,15.229c0,0,62.657-95.727,67.443-107.039
		c4.786-11.313,16.099-204.941,16.099-204.941L575.414,1600.269z"/>
	<path style="fill:#282828;" d="M605.759,1629.247l7.075,130.565c0,0,10.443,138.077,23.786,167.085h29.588l-14.504-324.309h-44.092
		L605.759,1629.247z"/>
	<path style="fill:#FEB546;" d="M659.402,1518.977c-2.162-20.063-12.193-38.313-27.65-50.936c-1.876-1.532-4.084-2.615-6.441-3.179
		c-6.402-1.532-14.756-1.826-18.852-1.872h-13.46c0,0-21.614,1.201-31.22,4.203c-9.606,3.002-47.431,19.813-51.633,17.411
		c-4.203-2.401-33.622-55.836-33.622-55.836l-16.21,8.405c0,0,10.207,74.781,38.425,80.318c28.218,5.537,55.836-1.668,55.836-1.668
		s5.403,75.049,19.212,88.257c0,0,54.531,3.697,74.802,1.361c3.677-0.425,6.614-3.254,7.2-6.909
		C657.935,1585.136,662.727,1549.84,659.402,1518.977z"/>
	<path style="fill:#FFC0BB;" d="M641.99,1478.161c-3.067-3.658-6.479-7.047-10.215-10.101c-1.885-1.54-4.093-2.631-6.46-3.197
		c-6.403-1.533-14.759-1.827-18.856-1.873h-13.46c0,0-3.68,0.205-8.674,0.655C595.194,1471.941,615.549,1483.151,641.99,1478.161z"
		/>
	<path style="fill:#F99893;" d="M596.068,1443.082c0,0,0.68,5.263,1.124,11.629c5.748,4.649,13.18,7.028,20.926,6.028
		c2.548-0.329,4.966-1.009,7.226-1.978c-0.179-4.151-0.117-8.001,0.525-9.844C627.635,1443.849,596.068,1443.082,596.068,1443.082z"
		/>
	<path style="fill:#F99893;" d="M640.768,1417.337c-1.417,3.849-0.069,7.887,3.01,9.02c3.079,1.134,6.723-1.067,8.139-4.917
		c1.417-3.848,0.069-7.887-3.01-9.02C645.828,1411.287,642.184,1413.488,640.768,1417.337z"/>
	<path style="fill:#FFC0BB;" d="M640.442,1439.577c0.889-1.67,1.628-3.434,2.205-5.273c1.649-4.944,2.389-10.16,2.672-14.696
		c0.061-0.974,0.178-1.94,0.313-2.906c0.546-3.9,0.39-8.011-0.666-12.206c-3.397-13.5-15.49-23.343-29.4-23.895
		c-18.739-0.743-33.684,14.542-33.056,32.785c-2.022-1.034-4.258-1.212-6.189-0.269c-3.705,1.811-4.874,7.031-2.611,11.662
		s7.1,6.917,10.804,5.107c0.515-0.252,0.975-0.574,1.389-0.946c2.115,15.468,15.246,27.013,30.492,26.235
		c7.456-0.38,14.106-3.644,19.023-8.7c0.33-0.297,0.676-0.643,1.037-1.043C638.044,1443.675,639.352,1441.689,640.442,1439.577z"/>
	<path style="fill:#333333;" d="M611.913,1417.742c0.084,1.645-1.181,3.045-2.825,3.129c-1.644,0.083-3.045-1.182-3.128-2.825
		c-0.084-1.645,1.181-3.045,2.825-3.129C610.429,1414.833,611.83,1416.098,611.913,1417.742z"/>
	<path style="fill:#333333;" d="M638.373,1417.742c0.083,1.645-1.181,3.045-2.825,3.129c-1.645,0.083-3.045-1.182-3.129-2.825
		c-0.083-1.645,1.181-3.045,2.825-3.129C636.888,1414.833,638.289,1416.098,638.373,1417.742z"/>
	<path style="fill:#07085B;" d="M614.419,1412.772c-1.354-0.718-2.762-1.252-4.196-1.608c-1.436-0.342-2.902-0.47-4.344-0.332
		c-0.722,0.06-1.435,0.205-2.133,0.402c-0.353,0.09-0.693,0.221-1.039,0.34c-0.173,0.06-0.337,0.141-0.508,0.209
		c-0.17,0.068-0.342,0.135-0.505,0.221c-1.331,0.635-2.586,1.467-3.813,2.394c0.911-1.238,2.074-2.308,3.419-3.127
		c0.671-0.409,1.391-0.755,2.146-1.001c0.753-0.254,1.538-0.43,2.333-0.499c1.589-0.148,3.204,0.066,4.682,0.6
		c0.742,0.259,1.449,0.602,2.119,0.996C613.243,1411.77,613.878,1412.223,614.419,1412.772z"/>
	<path style="fill:#07085B;" d="M626.429,1412.772c0.541-0.55,1.177-1.003,1.84-1.406c0.669-0.395,1.377-0.737,2.119-0.996
		c1.478-0.533,3.093-0.748,4.682-0.6c0.795,0.069,1.58,0.245,2.333,0.499c0.756,0.246,1.476,0.592,2.146,1.001
		c1.345,0.819,2.508,1.889,3.419,3.127c-1.227-0.927-2.481-1.759-3.812-2.394c-0.164-0.086-0.336-0.152-0.506-0.221
		c-0.17-0.068-0.335-0.149-0.508-0.209c-0.346-0.119-0.686-0.25-1.039-0.34c-0.699-0.197-1.412-0.343-2.133-0.402
		c-1.442-0.138-2.908-0.01-4.344,0.332C629.191,1411.521,627.784,1412.055,626.429,1412.772z"/>
	<path style="fill:#FFFFFF;" d="M555.008,1515.345c0.762-0.794,1.484-1.691,2.147-2.604c0.659-0.921,1.283-1.871,1.827-2.867
		c0.564-0.985,1.064-2.01,1.496-3.064c0.458-1.048,0.79-2.142,1.136-3.245c-0.148,1.143-0.366,2.289-0.727,3.394
		c-0.161,0.56-0.375,1.1-0.581,1.645c-0.235,0.532-0.452,1.074-0.721,1.591c-0.525,1.041-1.111,2.054-1.789,3.004
		c-0.538,0.771-1.112,1.504-1.755,2.201c0.583,0.117,1.193,0.193,1.792,0.223c0.831,0.04,1.669,0.009,2.497-0.115
		c0.416-0.049,0.823-0.147,1.235-0.232c0.401-0.121,0.813-0.218,1.205-0.376c0.803-0.271,1.55-0.679,2.3-1.103
		c-0.663,0.542-1.371,1.058-2.164,1.423c-0.778,0.394-1.617,0.673-2.474,0.854c-0.858,0.183-1.739,0.283-2.62,0.265
		c-0.886-0.013-1.75-0.098-2.643-0.332l-0.633-0.167L555.008,1515.345z"/>
	<path style="opacity:0.5;fill:#DAEEF7;" d="M644.615,1646.585c-1.779,1.733-3.5,3.52-5.177,5.347
		c-1.672,1.831-3.298,3.703-4.897,5.599c-1.6,1.895-3.169,3.814-4.706,5.761c-1.528,1.952-3.061,3.904-4.534,5.895l-0.326-0.32
		c1.345-0.973,2.741-1.84,4.174-2.653c1.435-0.809,2.919-1.526,4.428-2.183c1.507-0.659,3.055-1.229,4.633-1.69l1.187-0.335
		l1.201-0.278l0.6-0.138l0.608-0.103l1.214-0.201l-1.203,0.26l-0.6,0.129l-0.594,0.159l-1.185,0.32l-1.169,0.376
		c-0.391,0.118-0.774,0.263-1.157,0.407c-0.382,0.146-0.771,0.271-1.149,0.429l-1.134,0.466c-0.379,0.153-0.746,0.333-1.12,0.499
		c-1.486,0.68-2.935,1.438-4.351,2.253c-1.413,0.814-2.801,1.692-4.106,2.651l-1.211,0.89l0.884-1.209
		c1.469-2.01,2.972-3.986,4.531-5.922c1.554-1.939,3.14-3.853,4.758-5.738c1.627-1.879,3.31-3.708,5.022-5.51
		c0.868-0.889,1.737-1.777,2.64-2.631C642.763,1648.24,643.693,1647.416,644.615,1646.585z"/>
	<path style="opacity:0.5;fill:#DAEEF7;" d="M602.942,1668.571c-1.911-2.579-3.867-5.116-5.894-7.6
		c-2.021-2.488-4.083-4.941-6.185-7.36c-2.114-2.41-4.3-4.755-6.523-7.064c-1.127-1.139-2.256-2.276-3.427-3.371
		c-1.146-1.118-2.354-2.174-3.55-3.237c2.309,2.221,4.543,4.51,6.721,6.852c2.172,2.349,4.285,4.749,6.363,7.181
		c2.08,2.429,4.12,4.893,6.118,7.39c1.608,2.026,3.218,4.055,4.79,6.108c-1.266-0.833-2.56-1.609-3.881-2.348
		c-1.858-1.029-3.778-1.943-5.729-2.776c-1.949-0.839-3.95-1.561-5.989-2.143l-1.533-0.422l-1.551-0.349l-0.775-0.172l-0.785-0.128
		l-1.567-0.249l1.553,0.325l0.776,0.161l0.767,0.2l1.531,0.402l1.51,0.476c0.506,0.149,1.001,0.332,1.496,0.516
		c0.494,0.185,0.997,0.344,1.485,0.543l1.467,0.592c0.489,0.194,0.965,0.424,1.448,0.634c1.922,0.864,3.797,1.831,5.63,2.869
		c1.829,1.039,3.626,2.16,5.318,3.386l1.568,1.137L602.942,1668.571z"/>
	<path style="opacity:0.3;fill:#F99893;" d="M614.978,1435.096c0,0,3.498-1.252,6.787,0.903c0,0,3.557-2.227,6.359-0.101
		c0,0-1.301,5.297-7.144,4.94C615.138,1440.481,614.978,1435.096,614.978,1435.096z"/>
	<path style="fill:#F99893;" d="M611.917,1433.198c0.662,0.535,1.35,1.028,2.075,1.46c0.715,0.444,1.456,0.844,2.222,1.18
		c1.53,0.671,3.144,1.144,4.794,1.282c1.65,0.147,3.316-0.058,4.909-0.544c1.587-0.509,3.088-1.303,4.502-2.248
		c-0.631,0.571-1.309,1.096-2.032,1.559c-0.724,0.464-1.508,0.829-2.309,1.156c-0.811,0.303-1.656,0.524-2.518,0.647
		c-0.863,0.112-1.738,0.134-2.607,0.068c-1.735-0.161-3.426-0.679-4.953-1.479C614.476,1435.481,613.063,1434.464,611.917,1433.198z
		"/>
	<path style="fill:#F99893;" d="M622.934,1416.369c0.838,1.354,1.554,2.771,2.203,4.222c0.65,1.45,1.218,2.938,1.662,4.485
		c0.206,0.778,0.391,1.568,0.446,2.42c0.007,0.215,0.005,0.436-0.021,0.666c-0.013,0.115-0.045,0.24-0.07,0.358
		c-0.051,0.13-0.082,0.255-0.175,0.387c-0.047,0.065-0.097,0.13-0.148,0.19l-0.124,0.107c-0.083,0.069-0.163,0.145-0.249,0.207
		c-0.174,0.12-0.345,0.246-0.524,0.348c-0.707,0.434-1.454,0.741-2.21,1.008c-0.759,0.255-1.527,0.473-2.313,0.606
		c1.43-0.681,2.872-1.356,4.099-2.245c0.156-0.107,0.291-0.232,0.432-0.35l0.195-0.186l0.095-0.091
		c0.006-0.02,0.014-0.036,0.025-0.05c0.095-0.154,0.107-0.553,0.069-0.896c-0.073-0.725-0.252-1.48-0.464-2.222
		c-0.409-1.494-0.929-2.977-1.429-4.468C623.922,1419.379,623.405,1417.889,622.934,1416.369z"/>
	<path style="fill:#07085B;" d="M579.225,1407.053l2.521-2.298l1.106-7.472l7.37-17.482l36.76-5.655c0,0-0.473,2.883-0.941,6.024
		c4.28,1.775,10.752,4.431,10.752,4.431s-21.205,23.978-54.284,28.785c0,0-2.921-1.745-6.188-0.269L579.225,1407.053z"/>
	<path style="fill:#07085B;" d="M600.86,1369.298c0,0-4.003-36.748-33.11-39.658c-29.107-2.911-42.205,10.551-60.033,2.91
		c0,0-2.547,38.932,33.109,31.654c35.656-7.276,53.484,12.375,53.484,12.375L600.86,1369.298z"/>
	<path style="opacity:0.8;fill:#FFFFFF;" d="M2073.012,790.214c-3.302-14.371-16.162-25.092-31.535-25.092
		c-2.822,0-5.559,0.363-8.169,1.042c-7.587-16.225-24.054-27.467-43.147-27.467c-4.937,0-9.697,0.751-14.175,2.146
		c-10.279-17.021-28.954-28.402-50.289-28.402c-25.383,0-47.002,16.11-55.194,38.663c-5.799-3.233-12.474-5.082-19.584-5.082
		c-22.249,0-40.285,18.037-40.285,40.286c0,1.319,0.068,2.622,0.191,3.909H2073.012z"/>
	<path style="opacity:0.8;fill:#FFFFFF;" d="M880.137,683.219c-4.558-19.837-22.31-34.638-43.531-34.638
		c-3.896,0-7.674,0.501-11.277,1.438c-10.473-22.397-33.203-37.917-59.562-37.917c-6.815,0-13.386,1.038-19.567,2.963
		c-14.19-23.497-39.969-39.208-69.419-39.208c-35.039,0-64.882,22.238-76.191,53.37c-8.004-4.462-17.219-7.015-27.034-7.015
		c-30.712,0-55.61,24.897-55.61,55.61c0,1.821,0.094,3.62,0.265,5.395H880.137z"/>
	<rect x="1268.01" y="1744.259" style="opacity:0.5;fill:#E03268;" width="250.579" height="17.02"/>
	<rect x="1268.01" y="1791.336" style="opacity:0.5;fill:#E03268;" width="250.579" height="17.02"/>
	
		<rect x="382.44" y="1310.945" transform="matrix(0.9059 0.4236 -0.4236 0.9059 597.2848 -48.8394)" style="fill:#FEB546;" width="52.167" height="16.874"/>
	
		<rect x="904.662" y="533.639" transform="matrix(0.9059 0.4235 -0.4235 0.9059 317.201 -343.1907)" style="fill:#FEB546;" width="52.167" height="16.874"/>
	
		<rect x="2221.854" y="975.379" transform="matrix(0.9059 0.4236 -0.4236 0.9059 628.3107 -859.5305)" style="fill:#FEB546;" width="52.167" height="16.874"/>
	
		<rect x="2132.683" y="458.038" transform="matrix(0.9059 0.4235 -0.4235 0.9059 400.7686 -870.4304)" style="fill:#FEB546;" width="52.167" height="16.873"/>
	
		<rect x="1490.675" y="567.421" transform="matrix(0.9059 0.4235 -0.4235 0.9059 386.6686 -588.2152)" style="fill:#FEB546;" width="52.168" height="16.874"/>
	
		<rect x="1349.108" y="186.169" transform="matrix(0.9059 0.4235 -0.4235 0.9059 211.8658 -564.1406)" style="fill:#FEB546;" width="52.167" height="16.874"/>
	
		<rect x="1144.044" y="339.307" transform="matrix(0.8216 0.57 -0.57 0.8216 406.9136 -604.9515)" style="fill:#02CCC0;" width="52.167" height="16.874"/>
	
		<rect x="338.18" y="742.89" transform="matrix(0.8216 0.57 -0.57 0.8216 493.2334 -73.6259)" style="fill:#02CCC0;" width="52.167" height="16.874"/>
	
		<rect x="2171.268" y="800.64" transform="matrix(0.8216 0.57 -0.57 0.8216 853.0779 -1108.1837)" style="fill:#02CCC0;" width="52.168" height="16.874"/>
	
		<rect x="1777.342" y="941.671" transform="matrix(0.8216 0.57 -0.57 0.8216 863.2043 -858.4914)" style="fill:#02CCC0;" width="52.168" height="16.874"/>
	
		<rect x="1929.495" y="107.712" transform="matrix(0.8216 0.57 -0.57 0.8216 415.0005 -1093.9739)" style="fill:#02CCC0;" width="52.167" height="16.874"/>
	
		<rect x="696.297" y="251.09" transform="matrix(0.8216 0.57 -0.57 0.8216 276.7717 -365.4693)" style="fill:#02CCC0;" width="52.167" height="16.874"/>
	
		<rect x="173.584" y="1266.096" transform="matrix(0.8216 0.57 -0.57 0.8216 762.1149 113.5185)" style="fill:#02CCC0;" width="52.168" height="16.874"/>
	
		<rect x="410.967" y="1107.398" transform="matrix(-0.068 -0.9977 0.9977 -0.068 -646.4916 1627.7306)" style="fill:#FF5B7E;" width="52.167" height="16.874"/>
	
		<rect x="2394.282" y="1147.422" transform="matrix(-0.068 -0.9977 0.9977 -0.068 1431.7393 3649.209)" style="fill:#FF5B7E;" width="52.168" height="16.873"/>
	
		<rect x="1588.238" y="339.307" transform="matrix(-0.068 -0.9977 0.9977 -0.068 1377.1096 1981.9688)" style="fill:#FF5B7E;" width="52.167" height="16.873"/>
	
		<rect x="640.125" y="579.348" transform="matrix(-0.068 -0.9977 0.9977 -0.068 125.0734 1292.4106)" style="fill:#FF5B7E;" width="52.167" height="16.873"/>
	
		<rect x="164.549" y="1531.866" transform="matrix(-0.068 -0.9977 0.9977 -0.068 -1333.1473 1835.2087)" style="fill:#FF5B7E;" width="52.167" height="16.874"/>
	
		<rect x="283.094" y="975.379" transform="matrix(-0.913 0.4079 -0.4079 -0.913 992.7934 1755.926)" style="fill:#07085B;" width="52.167" height="16.874"/>
	
		<rect x="48.3" y="1408.639" transform="matrix(-0.913 0.4079 -0.4079 -0.913 720.3809 2680.5339)" style="fill:#07085B;" width="52.167" height="16.874"/>
	
		<rect x="538.986" y="870.285" transform="matrix(-0.913 0.4079 -0.4079 -0.913 1439.4498 1450.4871)" style="fill:#07085B;" width="52.167" height="16.874"/>
	
		<rect x="491.863" y="427.26" transform="matrix(-0.913 0.4079 -0.4079 -0.913 1168.5747 622.2002)" style="fill:#07085B;" width="52.168" height="16.874"/>
	
		<rect x="915.085" y="364.382" transform="matrix(-0.913 0.4079 -0.4079 -0.913 1952.5511 329.2624)" style="fill:#07085B;" width="52.167" height="16.874"/>
	
		<rect x="1124.603" y="81.199" transform="matrix(-0.913 0.4079 -0.4079 -0.913 2237.8396 -297.9368)" style="fill:#07085B;" width="52.168" height="16.874"/>
	
		<rect x="1646.011" y="47.039" transform="matrix(-0.913 0.4079 -0.4079 -0.913 3221.3652 -575.9837)" style="fill:#07085B;" width="52.167" height="16.874"/>
	
		<rect x="1915.738" y="364.382" transform="matrix(-0.913 0.4079 -0.4079 -0.913 3866.8081 -78.9476)" style="fill:#07085B;" width="52.167" height="16.874"/>
	
		<rect x="2345.018" y="758.492" transform="matrix(-0.913 0.4079 -0.4079 -0.913 4848.7988 499.883)" style="fill:#07085B;" width="52.167" height="16.874"/>
	
		<rect x="2059.768" y="1150.662" transform="matrix(-0.913 0.4079 -0.4079 -0.913 4463.0952 1366.4565)" style="fill:#07085B;" width="52.167" height="16.874"/>
	
		<rect x="2196.284" y="257.513" transform="matrix(-0.913 0.4079 -0.4079 -0.913 4359.9028 -397.8202)" style="fill:#07085B;" width="52.167" height="16.874"/>
	<g>
		<path style="fill:#FFFFFF;" d="M524.159,1960.619l-42.8-31.005c-1.322-0.958-1.618-2.808-0.66-4.13l0,0
			c0.958-1.322,2.807-1.618,4.129-0.66l42.8,31.006c1.323,0.958,1.618,2.807,0.66,4.129l0,0
			C527.331,1961.282,525.481,1961.577,524.159,1960.619z"/>
		<path style="fill:#333333;" d="M495.153,1910.118l-11.226,12.178c-1.384,1.502-1.545,3.659-0.339,4.533l41.937,30.38
			c1.089,0.789,2.658,0.889,4.156,0.025c1.536-0.886,3.083-2.775,3.129-6.789c0.088-7.803-10.679-17.688-13.809-26.409
			c-0.18-0.503-0.509-0.938-0.942-1.251l-18.843-13.65C498.125,1908.344,496.405,1908.761,495.153,1910.118z"/>
		<g>
			<path style="fill:#FFFFFF;" d="M510.182,1928.872L510.182,1928.872c-0.168-0.406,0.091-0.997,0.548-1.259
				c2.145-1.229,7.938-3.807,12.513,0.899c0.265,0.272,0.179,0.822-0.173,1.199l-0.011,0.013c-0.341,0.365-0.803,0.43-1.06,0.168
				c-4.113-4.2-9.138-1.869-10.913-0.822C510.707,1929.293,510.321,1929.209,510.182,1928.872z"/>
		</g>
		<g>
			<path style="fill:#FFFFFF;" d="M513.295,1933.741L513.295,1933.741c-0.168-0.405,0.091-0.996,0.548-1.258
				c2.145-1.229,7.938-3.808,12.513,0.899c0.264,0.271,0.178,0.822-0.173,1.199l-0.011,0.012c-0.34,0.365-0.804,0.431-1.06,0.169
				c-4.113-4.201-9.138-1.87-10.913-0.823C513.82,1934.163,513.435,1934.079,513.295,1933.741z"/>
		</g>
		<g>
			<path style="fill:#FFFFFF;" d="M516.186,1938.275L516.186,1938.275c-0.168-0.406,0.091-0.996,0.548-1.258
				c2.146-1.229,7.938-3.808,12.514,0.899c0.264,0.271,0.178,0.821-0.174,1.199l-0.011,0.012c-0.34,0.365-0.803,0.431-1.06,0.169
				c-4.113-4.201-9.138-1.87-10.912-0.822C516.712,1938.697,516.326,1938.613,516.186,1938.275z"/>
		</g>
	</g>
	<g>
		<path style="fill:#FFFFFF;" d="M691.504,1961.647l-52.85-0.033c-1.634-0.001-2.957-1.325-2.956-2.959l0,0
			c0.001-1.633,1.326-2.956,2.959-2.955l52.85,0.033c1.633,0.001,2.957,1.325,2.955,2.959l0,0
			C694.462,1960.325,693.137,1961.648,691.504,1961.647z"/>
		<path style="fill:#333333;" d="M638.402,1937.733l-1.958,16.447c-0.242,2.027,0.892,3.87,2.382,3.871l51.784,0.032
			c1.345,0.001,2.675-0.838,3.383-2.416c0.725-1.617,0.872-4.055-1.444-7.334c-4.502-6.373-19.02-8.07-26.668-13.303
			c-0.441-0.302-0.962-0.461-1.497-0.461l-23.268-0.016C639.769,1934.555,638.62,1935.9,638.402,1937.733z"/>
		<g>
			<path style="fill:#FFFFFF;" d="M661.57,1944.119L661.57,1944.119c-0.374-0.23-0.51-0.861-0.293-1.341
				c1.018-2.253,4.2-7.737,10.666-6.606c0.373,0.065,0.626,0.562,0.563,1.074l-0.002,0.016c-0.062,0.496-0.399,0.82-0.76,0.758
				c-5.794-0.992-8.5,3.842-9.324,5.73C662.244,1944.152,661.882,1944.311,661.57,1944.119z"/>
		</g>
		<g>
			<path style="fill:#FFFFFF;" d="M666.947,1946.239L666.947,1946.239c-0.374-0.23-0.511-0.86-0.294-1.341
				c1.018-2.252,4.2-7.737,10.666-6.605c0.374,0.065,0.627,0.562,0.563,1.073l-0.002,0.017c-0.062,0.495-0.398,0.819-0.76,0.758
				c-5.794-0.993-8.5,3.841-9.323,5.729C667.62,1946.273,667.258,1946.432,666.947,1946.239z"/>
		</g>
		<g>
			<path style="fill:#FFFFFF;" d="M671.948,1948.218L671.948,1948.218c-0.374-0.23-0.51-0.86-0.293-1.341
				c1.018-2.252,4.2-7.736,10.665-6.605c0.374,0.064,0.627,0.562,0.563,1.073l-0.002,0.017c-0.062,0.495-0.399,0.819-0.76,0.758
				c-5.794-0.993-8.5,3.841-9.324,5.729C672.621,1948.252,672.259,1948.409,671.948,1948.218z"/>
		</g>
	</g>
	<g>
		<path style="fill:#FFFFFF;" d="M872.436,1961.182l47.132-0.029c1.417-0.001,2.565-1.15,2.564-2.567v-0.129
			c-0.001-1.417-1.15-2.564-2.567-2.563l-47.133,0.029c-1.417,0.001-2.565,1.15-2.564,2.567v0.129
			C869.87,1960.035,871.019,1961.183,872.436,1961.182z"/>
		<path style="fill:#333333;" d="M919.728,1939.913l1.741,14.628c0.215,1.804-0.793,3.441-2.119,3.442l-46.055,0.029
			c-1.196,0.001-2.379-0.745-3.009-2.148c-0.645-1.439-0.775-3.607,1.285-6.522c4.004-5.669,16.915-7.179,23.718-11.832
			c0.392-0.269,0.856-0.41,1.331-0.41l20.694-0.014C918.512,1937.086,919.534,1938.282,919.728,1939.913z"/>
	</g>
	<g>
		<path style="fill:#FFFFFF;" d="M981.028,1961.182l47.132-0.029c1.417-0.001,2.565-1.15,2.564-2.567v-0.129
			c-0.001-1.417-1.15-2.564-2.567-2.563l-47.132,0.029c-1.417,0.001-2.565,1.15-2.564,2.567v0.129
			C978.462,1960.035,979.611,1961.183,981.028,1961.182z"/>
		<path style="fill:#333333;" d="M1028.32,1939.913l1.741,14.628c0.214,1.804-0.793,3.441-2.119,3.442l-46.055,0.029
			c-1.196,0.001-2.379-0.745-3.009-2.148c-0.645-1.439-0.775-3.607,1.285-6.522c4.004-5.669,16.915-7.179,23.718-11.832
			c0.392-0.269,0.855-0.41,1.331-0.41l20.694-0.014C1027.104,1937.086,1028.126,1938.282,1028.32,1939.913z"/>
	</g>
	<g>
		<path style="fill:#FFFFFF;" d="M1836.199,1961.222l52.85-0.033c1.633-0.001,2.956-1.325,2.955-2.959l0,0
			c-0.001-1.633-1.326-2.956-2.959-2.955l-52.851,0.033c-1.633,0.001-2.956,1.326-2.955,2.959l0,0
			C1833.24,1959.9,1834.565,1961.223,1836.199,1961.222z"/>
		<path style="fill:#333333;" d="M1889.301,1937.309l1.957,16.446c0.241,2.028-0.893,3.87-2.382,3.871l-51.784,0.032
			c-1.345,0.001-2.676-0.837-3.383-2.415c-0.726-1.618-0.871-4.056,1.444-7.334c4.502-6.374,19.02-8.071,26.668-13.304
			c0.441-0.302,0.962-0.461,1.497-0.461l23.268-0.015C1887.933,1934.129,1889.082,1935.475,1889.301,1937.309z"/>
		<g>
			<path style="fill:#FFFFFF;" d="M1866.133,1943.693L1866.133,1943.693c0.373-0.23,0.51-0.861,0.293-1.341
				c-1.018-2.253-4.2-7.737-10.665-6.606c-0.374,0.065-0.627,0.563-0.563,1.074l0.002,0.016c0.062,0.496,0.398,0.82,0.76,0.758
				c5.795-0.992,8.5,3.842,9.323,5.73C1865.459,1943.727,1865.821,1943.885,1866.133,1943.693z"/>
		</g>
		<g>
			<path style="fill:#FFFFFF;" d="M1860.756,1945.813L1860.756,1945.813c0.374-0.229,0.51-0.86,0.293-1.341
				c-1.018-2.252-4.199-7.736-10.665-6.605c-0.374,0.065-0.627,0.562-0.563,1.073l0.002,0.017c0.062,0.495,0.398,0.819,0.76,0.758
				c5.795-0.993,8.5,3.842,9.323,5.729C1860.082,1945.848,1860.444,1946.006,1860.756,1945.813z"/>
		</g>
		<g>
			<path style="fill:#FFFFFF;" d="M1855.755,1947.792L1855.755,1947.792c0.374-0.229,0.511-0.86,0.294-1.341
				c-1.019-2.252-4.2-7.736-10.666-6.605c-0.373,0.065-0.627,0.562-0.563,1.073l0.002,0.017c0.063,0.495,0.398,0.819,0.761,0.758
				c5.794-0.992,8.499,3.842,9.323,5.729C1855.082,1947.826,1855.443,1947.984,1855.755,1947.792z"/>
		</g>
	</g>
	<g>
		<path style="fill:#444444;" d="M2021.843,1961.222l52.85-0.033c1.633-0.001,2.956-1.325,2.955-2.959l0,0
			c-0.001-1.633-1.325-2.956-2.959-2.955l-52.85,0.033c-1.634,0.001-2.957,1.326-2.956,2.959l0,0
			C2018.885,1959.9,2020.209,1961.223,2021.843,1961.222z"/>
		<path style="fill:#FEB546;" d="M2074.943,1937.309l1.958,16.446c0.241,2.028-0.893,3.87-2.382,3.871l-51.784,0.032
			c-1.345,0.001-2.675-0.837-3.383-2.415c-0.726-1.618-0.871-4.056,1.444-7.334c4.502-6.374,19.02-8.071,26.668-13.304
			c0.441-0.302,0.963-0.461,1.497-0.461l23.268-0.015C2073.576,1934.129,2074.727,1935.475,2074.943,1937.309z"/>
		<g>
			<path style="fill:#FFFFFF;" d="M2051.775,1943.693L2051.775,1943.693c0.375-0.23,0.511-0.861,0.294-1.341
				c-1.019-2.253-4.199-7.737-10.665-6.606c-0.374,0.065-0.627,0.563-0.563,1.074l0.002,0.016c0.062,0.496,0.398,0.82,0.76,0.758
				c5.795-0.992,8.5,3.842,9.324,5.73C2051.103,1943.727,2051.465,1943.885,2051.775,1943.693z"/>
		</g>
		<g>
			<path style="fill:#FFFFFF;" d="M2046.399,1945.813L2046.399,1945.813c0.374-0.229,0.51-0.86,0.293-1.341
				c-1.018-2.252-4.199-7.736-10.665-6.605c-0.373,0.065-0.627,0.562-0.563,1.073l0.002,0.017c0.063,0.495,0.398,0.819,0.761,0.758
				c5.794-0.993,8.499,3.842,9.323,5.729C2045.726,1945.848,2046.088,1946.006,2046.399,1945.813z"/>
		</g>
		<g>
			<path style="fill:#FFFFFF;" d="M2041.398,1947.792L2041.398,1947.792c0.374-0.229,0.511-0.86,0.293-1.341
				c-1.018-2.252-4.199-7.736-10.665-6.605c-0.373,0.065-0.626,0.562-0.563,1.073l0.002,0.017c0.063,0.495,0.399,0.819,0.761,0.758
				c5.794-0.992,8.499,3.842,9.323,5.729C2040.726,1947.826,2041.088,1947.984,2041.398,1947.792z"/>
		</g>
	</g>
	<g>
		<path style="fill:#444444;" d="M2210.24,1961.222l-52.85-0.033c-1.633-0.001-2.956-1.325-2.955-2.959l0,0
			c0.001-1.633,1.326-2.956,2.959-2.955l52.85,0.033c1.634,0.001,2.957,1.326,2.956,2.959l0,0
			C2213.199,1959.9,2211.874,1961.223,2210.24,1961.222z"/>
		<path style="fill:#FEB546;" d="M2157.139,1937.309l-1.957,16.446c-0.241,2.028,0.893,3.87,2.383,3.871l51.783,0.032
			c1.345,0.001,2.675-0.837,3.383-2.415c0.725-1.618,0.871-4.056-1.444-7.334c-4.502-6.374-19.021-8.071-26.668-13.304
			c-0.44-0.302-0.962-0.461-1.497-0.461l-23.268-0.015C2158.507,1934.129,2157.357,1935.475,2157.139,1937.309z"/>
		<g>
			<path style="fill:#FFFFFF;" d="M2180.307,1943.693L2180.307,1943.693c-0.373-0.23-0.51-0.861-0.293-1.341
				c1.018-2.253,4.199-7.737,10.666-6.606c0.373,0.065,0.626,0.563,0.562,1.074l-0.002,0.016c-0.062,0.496-0.398,0.82-0.76,0.758
				c-5.795-0.992-8.5,3.842-9.323,5.73C2180.98,1943.727,2180.618,1943.885,2180.307,1943.693z"/>
		</g>
		<g>
			<path style="fill:#FFFFFF;" d="M2185.684,1945.813L2185.684,1945.813c-0.374-0.229-0.51-0.86-0.293-1.341
				c1.018-2.252,4.199-7.736,10.665-6.605c0.374,0.065,0.626,0.562,0.563,1.073l-0.002,0.017c-0.062,0.495-0.398,0.819-0.761,0.758
				c-5.794-0.993-8.499,3.842-9.322,5.729C2186.357,1945.848,2185.995,1946.006,2185.684,1945.813z"/>
		</g>
		<g>
			<path style="fill:#FFFFFF;" d="M2190.685,1947.792L2190.685,1947.792c-0.374-0.229-0.511-0.86-0.294-1.341
				c1.019-2.252,4.2-7.736,10.666-6.605c0.373,0.065,0.627,0.562,0.563,1.073l-0.002,0.017c-0.063,0.495-0.398,0.819-0.761,0.758
				c-5.794-0.992-8.499,3.842-9.323,5.729C2191.357,1947.826,2190.996,1947.984,2190.685,1947.792z"/>
		</g>
	</g>
	<g>
		<path style="fill:#FFFFFF;" d="M1759.31,1961.222l52.851-0.033c1.633-0.001,2.956-1.325,2.955-2.959l0,0
			c-0.001-1.633-1.326-2.956-2.959-2.955l-52.851,0.033c-1.633,0.001-2.956,1.326-2.955,2.959l0,0
			C1756.352,1959.9,1757.677,1961.223,1759.31,1961.222z"/>
		<path style="fill:#333333;" d="M1812.411,1937.309l1.958,16.446c0.241,2.028-0.893,3.87-2.383,3.871l-51.783,0.032
			c-1.345,0.001-2.676-0.837-3.383-2.415c-0.726-1.618-0.872-4.056,1.444-7.334c4.502-6.374,19.02-8.071,26.668-13.304
			c0.44-0.302,0.962-0.461,1.496-0.461l23.269-0.015C1811.044,1934.129,1812.193,1935.475,1812.411,1937.309z"/>
		<g>
			<path style="fill:#FFFFFF;" d="M1789.243,1943.693L1789.243,1943.693c0.374-0.23,0.511-0.861,0.294-1.341
				c-1.019-2.253-4.2-7.737-10.666-6.606c-0.373,0.065-0.626,0.563-0.563,1.074l0.003,0.016c0.062,0.496,0.398,0.82,0.76,0.758
				c5.794-0.992,8.499,3.842,9.323,5.73C1788.57,1943.727,1788.932,1943.885,1789.243,1943.693z"/>
		</g>
		<g>
			<path style="fill:#FFFFFF;" d="M1783.866,1945.813L1783.866,1945.813c0.374-0.229,0.511-0.86,0.294-1.341
				c-1.018-2.252-4.199-7.736-10.665-6.605c-0.374,0.065-0.627,0.562-0.563,1.073l0.002,0.017c0.062,0.495,0.398,0.819,0.76,0.758
				c5.795-0.993,8.5,3.842,9.323,5.729C1783.193,1945.848,1783.556,1946.006,1783.866,1945.813z"/>
		</g>
		<g>
			<path style="fill:#FFFFFF;" d="M1778.866,1947.792L1778.866,1947.792c0.374-0.229,0.51-0.86,0.293-1.341
				c-1.018-2.252-4.199-7.736-10.665-6.605c-0.373,0.065-0.627,0.562-0.563,1.073l0.002,0.017c0.063,0.495,0.398,0.819,0.761,0.758
				c5.794-0.992,8.499,3.842,9.323,5.729C1778.192,1947.826,1778.555,1947.984,1778.866,1947.792z"/>
		</g>
	</g>
</g>
</svg>
