<?xml version="1.0" encoding="utf-8"?>
<!-- Generator: Adobe Illustrator 27.5.0, SVG Export Plug-In . SVG Version: 6.00 Build 0)  -->
<svg version="1.1" xmlns="http://www.w3.org/2000/svg" xmlns:xlink="http://www.w3.org/1999/xlink" x="0px" y="0px"
	 viewBox="0 0 500 500" style="enable-background:new 0 0 500 500;" xml:space="preserve">
<g id="Background_Simple">
	<g>
		<path style="fill:#92E3A9;" d="M349.011,444.022c0,0,80.18-66.18,99.138-169.358c18.958-103.178-58.712-123.937-104.256-158.875
			s-62.294-74.271-128.312-76.65c-66.018-2.378-100.182,24.211-124.044,75.709C67.676,166.346,54.92,219.222,47.402,270.824
			c-7.518,51.602-3.855,92.813,38.511,113.348c42.366,20.535,62.037,11.506,82.155,35.17
			C188.186,443.005,280.032,496.543,349.011,444.022z"/>
		<path style="opacity:0.7;fill:#FFFFFF;" d="M349.011,444.022c0,0,80.18-66.18,99.138-169.358
			c18.958-103.178-58.712-123.937-104.256-158.875s-62.294-74.271-128.312-76.65c-66.018-2.378-100.182,24.211-124.044,75.709
			C67.676,166.346,54.92,219.222,47.402,270.824c-7.518,51.602-3.855,92.813,38.511,113.348
			c42.366,20.535,62.037,11.506,82.155,35.17C188.186,443.005,280.032,496.543,349.011,444.022z"/>
	</g>
</g>
<g id="Plants">
	<g style="opacity:0.3;">
		<g>
			<g>
				<g>
					<path d="M136.064,356.662c-0.28-0.337-0.723-0.365-0.987-0.067c-21.076,23.718-29.169,60.258-21.12,95.36
						c0.026,0.115,0.074,0.216,0.133,0.307l1.231-0.315c0.007-0.093,0.006-0.189-0.016-0.286
						c-7.922-34.546,0.043-70.507,20.786-93.85C136.356,357.512,136.344,356.997,136.064,356.662z"/>
				</g>
				<g>
					<g>
						<path d="M124.06,420.477c-8.494-1.919-12.244,13.128-11.935,13.366c0.081,1.709,0.199,3.426,0.355,5.149
							c0.476-2.173,4.053-5.602,10.074-7.658C128.441,429.037,132.185,421.962,124.06,420.477z"/>
					</g>
					<g>
						<path d="M99.434,416.241c-8.363-1.539-4.988,11.63,1.479,14.515c6.272,3.066,10.445,6.191,11.445,8.244
							c-0.256-1.719-0.473-3.437-0.654-5.155C111.407,433.985,107.33,418.037,99.434,416.241z"/>
					</g>
				</g>
				<g>
					<g>
						<path d="M125.933,406.106c-8.212-3.514-14.129,10.202-13.861,10.474c-0.168,1.652-0.301,3.316-0.397,4.991
							c0.796-1.978,4.871-4.548,11.189-5.325C129.086,415.217,133.843,409.149,125.933,406.106z"/>
					</g>
					<g>
						<path d="M101.923,397.152c-8.138-3.13-6.656,10.212-0.611,14.248c5.827,4.183,9.542,7.998,10.241,10.154
							c-0.003-1.691,0.03-3.376,0.099-5.055C111.34,416.591,109.563,400.461,101.923,397.152z"/>
					</g>
				</g>
				<g>
					<g>
						<path d="M129.862,392.567c-7.708-5.009-15.583,7.107-15.353,7.409c-0.405,1.561-0.775,3.139-1.112,4.733
							c1.079-1.747,5.522-3.42,11.948-2.924C131.709,402.024,137.333,397.075,129.862,392.567z"/>
					</g>
					<g>
						<path d="M107.141,379.167c-7.689-4.628-8.115,8.596-2.649,13.681c5.226,5.192,8.395,9.606,8.783,11.82
							c0.24-1.629,0.514-3.247,0.824-4.854C113.775,399.856,114.303,383.89,107.141,379.167z"/>
					</g>
				</g>
				<g>
					<g>
						<path d="M135.749,380.156c-6.992-6.371-16.621,3.891-16.43,4.22c-0.629,1.437-1.225,2.896-1.79,4.375
							c1.329-1.482,6.01-2.236,12.365-0.498C136.221,389.733,142.567,386.003,135.749,380.156z"/>
					</g>
					<g>
						<path d="M114.961,362.681c-7.025-6-9.372,6.802-4.633,12.808c4.479,6.069,7.014,10.975,7.086,13.199
							c0.472-1.532,0.979-3.05,1.519-4.55C118.597,384.126,121.434,368.685,114.961,362.681z"/>
					</g>
				</g>
				<g>
					<g>
						<path d="M143.497,369.168c-6.075-7.568-17.26,0.602-17.106,0.954c-0.84,1.281-1.651,2.588-2.431,3.92
							c1.545-1.186,6.342-1.014,12.453,1.911C142.53,378.623,149.459,376.198,143.497,369.168z"/>
					</g>
					<g>
						<path d="M125.253,348.087c-6.158-7.215-10.432,4.848-6.561,11.623c3.593,6.792,5.414,12.068,5.162,14.249
							c0.696-1.402,1.424-2.783,2.185-4.142C125.694,369.745,130.836,355.206,125.253,348.087z"/>
					</g>
				</g>
				<g>
					<path d="M131.167,362.547c-0.227-0.007,4.604-12.906,9.64-17.783c4.814-4.972,9.472-1.608,10.058,1.788
						c0.636,3.407-2.851,6.697-6.258,8.641C141.084,356.784,131.104,362.31,131.167,362.547z"/>
					<path d="M131.255,363.086c-0.02,0.003-0.04,0.003-0.061,0.003c-0.197-0.006-0.386-0.161-0.462-0.379
						c-0.005-0.015-0.009-0.033-0.011-0.053c-0.039-0.148-0.067-0.262,0.04-0.419c0.514-2.562,5.403-13.713,9.731-17.903
						c2.369-2.449,5.099-3.237,7.484-2.15c1.716,0.782,3.029,2.471,3.346,4.304c0.861,4.609-4.744,8.204-6.482,9.195
						c-3.435,1.554-12.517,6.59-13.301,7.224C131.469,363.009,131.368,363.072,131.255,363.086z M145.251,342.825
						c-1.166,0.148-2.578,0.767-4.119,2.359c-3.973,3.847-7.769,12.651-9.055,16.088c0.838-0.505,2.163-1.246,4.238-2.387
						c2.674-1.471,6.204-3.346,8.092-4.199c3.263-1.864,6.58-4.974,6.003-8.061c-0.251-1.453-1.313-2.797-2.709-3.433
						C147.135,342.933,146.291,342.692,145.251,342.825z"/>
				</g>
			</g>
			<g>
				<g>
					<path d="M108.293,453.744c-27.98-45.594-35.046-103.871-18.391-152.451c0.216-0.627-0.063-1.383-0.621-1.686
						c-0.559-0.305-1.186-0.041-1.4,0.584c-16.828,49.082-9.821,107.907,18.209,154.116L108.293,453.744z"/>
				</g>
				<g>
					<g>
						<path d="M105.21,402.585c-12.73,3.035-10.247,27.954-9.698,28.092c0.983,2.48,2.022,4.945,3.117,7.392
							c-0.449-3.553,2.751-11.117,10.034-18.336C115.636,412.249,117.208,399.161,105.21,402.585z"/>
					</g>
					<g>
						<path d="M68.98,413.354c-12.356,3.508-0.972,20.706,9.447,20.507c10.241,0.205,17.607,1.952,20.037,4.304
							c-1.23-2.373-2.407-4.772-3.533-7.194C94.591,431.384,80.819,410.55,68.98,413.354z"/>
					</g>
				</g>
				<g>
					<g>
						<path d="M100.474,379.969c-13.153,0.474-14.346,24.918-13.836,25.135c0.61,2.567,1.274,5.127,1.995,7.678
							c0.092-3.486,4.42-10.121,12.766-15.647C109.481,391.302,112.97,379.005,100.474,379.969z"/>
					</g>
					<g>
						<path d="M62.689,383.312c-12.856,0.992-4.002,19.757,6.42,21.559c10.194,2.17,17.28,5.256,19.346,7.972
							c-0.867-2.506-1.68-5.03-2.44-7.568C85.631,405.627,74.947,382.931,62.689,383.312z"/>
					</g>
				</g>
				<g>
					<g>
						<path d="M99.006,357.164c-13.217-2.092-17.936,21.334-17.464,21.623c0.236,2.595,0.527,5.193,0.874,7.791
							c0.603-3.339,5.896-8.897,15.04-12.611C106.384,369.914,111.641,358.677,99.006,357.164z"/>
					</g>
					<g>
						<path d="M60.74,353.02c-12.997-1.541-6.844,18.372,3.311,22.129c9.878,4.083,16.512,8.436,18.178,11.452
							c-0.499-2.582-0.945-5.173-1.336-7.771C80.466,379.117,73.057,355.066,60.74,353.02z"/>
					</g>
				</g>
				<g>
					<g>
						<path d="M100.823,334.677c-12.921-4.609-21.012,17.282-20.58,17.637c-0.137,2.567-0.219,5.145-0.246,7.73
							c1.083-3.118,7.175-7.479,16.853-9.301C106.36,348.557,113.238,338.63,100.823,334.677z"/>
					</g>
					<g>
						<path d="M63.153,323.149c-12.779-4.037-9.497,16.58,0.121,22.208c9.292,5.902,15.3,11.424,16.533,14.673
							c-0.128-2.6-0.201-5.202-0.219-7.801C79.118,352.442,75.169,327.573,63.153,323.149z"/>
					</g>
				</g>
				<g>
					<g>
						<path d="M105.942,313.012c-12.263-7.02-23.573,12.845-23.18,13.26c-0.51,2.481-0.965,4.981-1.365,7.498
							c1.533-2.829,8.257-5.896,18.203-5.788C109.424,327.706,117.774,319.311,105.942,313.012z"/>
					</g>
					<g>
						<path d="M69.952,294.372c-12.199-6.439-11.961,14.415-3.151,21.785c8.433,7.587,13.643,14.153,14.407,17.562
							c0.248-2.561,0.551-5.115,0.911-7.658C81.604,326.195,81.305,301.068,69.952,294.372z"/>
					</g>
				</g>
			</g>
		</g>
	</g>
	<g style="opacity:0.3;">
		<g>
			<g>
				<g>
					<path d="M370.367,376.838c0.197-0.208,0.507-0.183,0.693,0.054c14.802,18.803,20.486,45.289,14.833,69.122
						c-0.018,0.078-0.052,0.144-0.094,0.202l-0.864-0.346c-0.005-0.066-0.004-0.133,0.012-0.199
						c5.563-23.455-0.03-49.521-14.598-68.027C370.162,377.405,370.17,377.045,370.367,376.838z"/>
				</g>
				<g>
					<g>
						<path d="M378.797,422.878c5.965-0.483,8.599,10.467,8.382,10.602c-0.057,1.192-0.14,2.386-0.25,3.58
							c-0.335-1.575-2.846-4.347-7.075-6.404C375.72,428.443,373.091,423.093,378.797,422.878z"/>
					</g>
					<g>
						<path d="M396.092,422.41c5.874-0.229,3.504,8.676-1.039,10.043c-4.405,1.515-7.335,3.285-8.038,4.624
							c0.179-1.181,0.332-2.366,0.46-3.553C387.684,433.652,390.547,422.867,396.092,422.41z"/>
					</g>
				</g>
				<g>
					<g>
						<path d="M377.482,412.594c5.767-1.632,9.923,8.604,9.734,8.767c0.118,1.177,0.211,2.359,0.279,3.546
							c-0.559-1.47-3.421-3.69-7.858-4.879C375.268,418.672,371.927,413.926,377.482,412.594z"/>
					</g>
					<g>
						<path d="M394.345,408.75c5.716-1.37,4.674,7.85,0.429,10.069c-4.092,2.344-6.702,4.645-7.192,6.089
							c0.002-1.187-0.021-2.374-0.07-3.56C387.73,421.443,388.979,410.296,394.345,408.75z"/>
					</g>
				</g>
				<g>
					<g>
						<path d="M374.723,402.685c5.413-2.733,10.944,6.578,10.783,6.767c0.284,1.137,0.545,2.283,0.781,3.437
							c-0.758-1.337-3.878-2.964-8.391-3.27C373.426,409.139,369.476,405.091,374.723,402.685z"/>
					</g>
					<g>
						<path d="M390.68,395.588c5.4-2.467,5.699,6.864,1.86,9.878c-3.671,3.114-5.896,5.891-6.168,7.407
							c-0.168-1.168-0.361-2.333-0.578-3.493C386.021,409.443,385.65,398.176,390.68,395.588z"/>
					</g>
				</g>
				<g>
					<g>
						<path d="M370.588,393.37c4.91-3.762,11.673,4.425,11.539,4.637c0.441,1.073,0.861,2.159,1.257,3.255
							c-0.933-1.176-4.221-2.182-8.684-1.609C370.257,400.048,365.8,396.782,370.588,393.37z"/>
					</g>
					<g>
						<path d="M385.188,383.214c4.934-3.499,6.582,5.732,3.254,9.467c-3.146,3.807-4.926,6.994-4.976,8.548
							c-0.332-1.124-0.688-2.241-1.067-3.35C382.634,397.904,380.642,386.771,385.188,383.214z"/>
					</g>
				</g>
				<g>
					<g>
						<path d="M365.147,384.865c4.266-4.697,12.122,2.18,12.013,2.411c0.59,0.985,1.159,1.985,1.707,3
							c-1.085-0.99-4.454-1.358-8.746,0.074C365.826,391.603,360.959,389.194,365.147,384.865z"/>
					</g>
					<g>
						<path d="M377.959,371.916c4.325-4.44,7.326,4.467,4.608,8.831c-2.523,4.404-3.802,7.924-3.625,9.481
							c-0.489-1.055-1-2.1-1.535-3.132C377.65,387.082,374.039,376.348,377.959,371.916z"/>
					</g>
				</g>
				<g>
					<path d="M373.806,381.469c0.159,0.019-3.233-9.532-6.77-13.47c-3.381-3.982-6.652-2.093-7.064,0.232
						c-0.447,2.328,2.002,4.994,4.395,6.706C366.841,376.413,373.85,381.31,373.806,381.469z"/>
					<path d="M373.744,381.839c0.014,0.004,0.028,0.007,0.043,0.008c0.138,0.016,0.271-0.073,0.325-0.219
						c0.004-0.01,0.006-0.022,0.008-0.036c0.028-0.1,0.047-0.177-0.028-0.298c-0.361-1.851-3.795-10.181-6.834-13.564
						c-1.664-1.961-3.581-2.793-5.256-2.272c-1.205,0.374-2.128,1.427-2.349,2.682c-0.604,3.149,3.332,6.244,4.552,7.118
						c2.412,1.441,8.791,5.903,9.341,6.428C373.594,381.764,373.665,381.818,373.744,381.839z M363.915,366.185
						c0.819,0.223,1.811,0.801,2.893,2.076c2.79,3.106,5.456,9.676,6.359,12.221c-0.589-0.44-1.519-1.095-2.977-2.108
						c-1.878-1.305-4.357-2.981-5.683-3.773c-2.292-1.641-4.621-4.163-4.216-6.273c0.176-0.995,0.922-1.83,1.902-2.135
						C362.592,366.069,363.185,365.986,363.915,366.185z"/>
				</g>
			</g>
			<g>
				<g>
					<path d="M389.87,447.846c19.65-29.172,24.613-69.38,12.916-105.194c-0.152-0.462,0.044-0.964,0.436-1.121
						c0.393-0.158,0.833,0.092,0.983,0.553c11.819,36.184,6.897,76.783-12.788,106.382L389.87,447.846z"/>
				</g>
				<g>
					<g>
						<path d="M392.036,412.231c8.94,3.427,7.196,20.675,6.811,20.716c-0.69,1.642-1.42,3.267-2.189,4.874
							c0.315-2.45-1.932-8.088-7.047-13.899C384.714,417.957,383.61,408.605,392.036,412.231z"/>
					</g>
					<g>
						<path d="M417.48,423.483c8.677,3.722,0.683,14.641-6.635,13.44c-7.192-0.899-12.366-0.422-14.072,0.983
							c0.864-1.541,1.691-3.106,2.481-4.692C399.494,433.538,409.165,420.309,417.48,423.483z"/>
					</g>
				</g>
				<g>
					<g>
						<path d="M395.362,396.83c9.237,1.672,10.076,18.96,9.717,19.061c-0.428,1.741-0.895,3.471-1.401,5.189
							c-0.065-2.457-3.104-7.558-8.965-12.289C389.036,403.872,386.586,394.881,395.362,396.83z"/>
					</g>
					<g>
						<path d="M421.898,403.025c9.029,2.006,2.811,14.283-4.509,14.487c-7.159,0.486-12.136,1.932-13.587,3.629
							c0.609-1.672,1.18-3.361,1.714-5.067C405.787,416.361,413.29,401.509,421.898,403.025z"/>
					</g>
				</g>
				<g>
					<g>
						<path d="M396.393,380.964c9.283-0.124,12.596,16.809,12.265,16.964c-0.166,1.799-0.37,3.593-0.614,5.382
							c-0.423-2.406-4.141-6.849-10.562-10.388C391.211,389.167,387.519,380.74,396.393,380.964z"/>
					</g>
					<g>
						<path d="M423.267,381.949c9.128,0.241,4.807,13.599-2.326,15.204c-6.937,1.862-11.596,4.244-12.767,6.192
							c0.351-1.763,0.663-3.537,0.938-5.322C409.413,398.269,414.617,382.132,423.267,381.949z"/>
					</g>
				</g>
				<g>
					<g>
						<path d="M395.117,364.986c9.075-1.921,14.757,14.276,14.453,14.482c0.096,1.817,0.154,3.635,0.173,5.454
							c-0.761-2.3-5.039-5.983-11.836-8.248C391.228,374.17,386.398,366.498,395.117,364.986z"/>
					</g>
					<g>
						<path d="M421.573,360.725c8.974-1.534,6.67,12.611-0.085,15.585c-6.526,3.199-10.745,6.466-11.611,8.621
							c0.09-1.813,0.141-3.633,0.153-5.457C410.361,379.672,413.133,362.609,421.573,360.725z"/>
					</g>
				</g>
				<g>
					<g>
						<path d="M391.522,349.249c8.612-3.682,16.556,11.421,16.279,11.673c0.358,1.794,0.677,3.596,0.959,5.405
							c-1.077-2.143-5.799-4.981-12.784-5.919C389.076,359.215,383.212,352.469,391.522,349.249z"/>
					</g>
					<g>
						<path d="M416.798,339.823c8.567-3.28,8.4,11.341,2.213,15.621c-5.923,4.47-9.582,8.551-10.118,10.867
							c-0.174-1.824-0.387-3.648-0.64-5.471C408.614,360.986,408.824,343.369,416.798,339.823z"/>
					</g>
				</g>
			</g>
		</g>
	</g>
</g>
<g id="Hearts">
	<g>
		<path style="fill:none;stroke:#263238;stroke-linecap:round;stroke-linejoin:round;stroke-miterlimit:10;" d="M134.74,267.82
			c9.409,6.772,23.552,14.923,23.552,14.923s18.325-21.308,20.03-33.667c0.071-0.515,0.119-1.016,0.145-1.504"/>
		<path style="fill:none;stroke:#263238;stroke-linecap:round;stroke-linejoin:round;stroke-miterlimit:10;" d="M177.377,241.271
			c-2.916-6.313-10.987-8.071-17.38-4.555c-8.523,4.688-8.523,14.916-8.523,14.916s-14.064-15.768-22.161-11.08
			c-8.097,4.688-7.245,14.916-1.705,21.308c0.908,1.048,2.344,2.314,4.11,3.698"/>
		<path style="fill:none;stroke:#263238;stroke-linecap:round;stroke-linejoin:round;stroke-miterlimit:10;" d="M366.144,289.902
			c3.114-1.993,5.872-4.171,7.44-6.342c5.34-7.394-0.48-14.368-7.591-14.266c-7.111,0.102-10.62,6.705-10.62,6.705
			s-3.67-15.005-10.505-14.756c-6.836,0.249-9.794,7.144-8.411,13.172c1.384,6.028,12.645,24.008,12.645,24.008
			s6.003-2.343,12.224-5.703"/>
		<path style="fill:none;stroke:#263238;stroke-linecap:round;stroke-linejoin:round;stroke-miterlimit:10;" d="M250.872,136.051
			c2.642,5.536,7.613,13.474,7.613,13.474s13.804-5.387,17.655-10.719c3.851-5.332-0.346-10.362-5.474-10.288
			c-5.128,0.074-7.659,4.836-7.659,4.836s-2.646-10.821-7.576-10.642c-3.697,0.134-5.822,2.965-6.232,6.206"/>
		<path style="fill:none;stroke:#263238;stroke-linecap:round;stroke-linejoin:round;stroke-miterlimit:10;" d="M323.783,338.528
			c2.786-1.653,5.375-3.537,6.731-5.414c3.851-5.332-0.346-10.362-5.474-10.288c-5.128,0.074-7.659,4.836-7.659,4.836
			s-2.646-10.821-7.576-10.642c-4.93,0.179-7.063,5.152-6.065,9.499s9.119,17.314,9.119,17.314s3.985-1.555,8.27-3.821"/>
	</g>
</g>
<g id="Hands">
	<g>
		<g>
			<g>
				<path style="fill:#263238;stroke:#263238;stroke-linecap:round;stroke-linejoin:round;stroke-miterlimit:10;" d="
					M430.422,113.687c2.087-6.561,5.666-14.612,2.386-14.016c-3.28,0.596-13.419,12.227-11.034,5.964
					c2.386-6.262,8.648-12.227,7.754-15.507c-0.895-3.28-8.35-6.262-11.928-6.262c-3.579,0-7.754,3.579-11.63,10.736
					c-3.877,7.157-5.964,6.262-5.964,6.262s11.332-17.594,9.543-22.962c-1.789-5.368-18.787-14.91-21.471-15.805
					c-2.684-0.895-11.928,11.332-16.998,17.296c-5.07,5.964,8.052-18.787,8.35-22.366c0.298-3.578-5.07-2.087-8.946,3.579
					c-3.877,5.666-11.034,17.594-8.052,8.946c2.982-8.648,9.245-16.402,9.245-18.787c0-0.261-0.025-0.481-0.065-0.676l-1.784-1.158
					c0,0-8.31,11.732-12.71,20.043c-4.4,8.311-6.844,18.576-10.266,23.465c-3.422,4.888-18.087,9.777-21.509,18.576
					c-3.422,8.799-4.4,24.931-4.4,24.931l-16.111,23.596c0,0-0.753,0.958,6.462,2.401c7.215,1.443,21.357,11.256,27.417,19.625
					c6.061,8.369,8.081,24.243,8.081,24.243s3.175,4.329,5.772,2.309c2.597-2.02,3.752-8.658,9.812-14.141
					c6.061-5.484,17.893-24.82,17.893-24.82s8.658,6.349,17.028-0.866c8.369-7.215,20.779-39.538,28.283-48.485
					c1.466-1.748,3.076-3.673,4.716-5.637C430.339,114.008,430.37,113.851,430.422,113.687z"/>
				<g>
					<path style="fill:none;stroke:#FFFFFF;stroke-linecap:round;stroke-linejoin:round;stroke-miterlimit:10;" d="M350.696,103.425
						c2.253-1.834,4.035-3.529,4.753-4.964c2.477-4.955,7.432-18.27,7.432-18.27"/>
					<path style="fill:none;stroke:#FFFFFF;stroke-linecap:round;stroke-linejoin:round;stroke-miterlimit:10;" d="M325.083,144.9
						l3.424-6.183c0,0,2.477-14.864,5.883-21.057c1.846-3.357,7.15-7.26,12.015-10.92"/>
					
						<line style="fill:none;stroke:#FFFFFF;stroke-linecap:round;stroke-linejoin:round;stroke-miterlimit:10;" x1="317.36" y1="158.845" x2="322.665" y2="149.267"/>
					<path style="fill:none;stroke:#FFFFFF;stroke-linecap:round;stroke-linejoin:round;stroke-miterlimit:10;" d="M383.55,89.21
						c2.632-4.142,4.103-6.851,4.103-6.851"/>
					<path style="fill:none;stroke:#FFFFFF;stroke-linecap:round;stroke-linejoin:round;stroke-miterlimit:10;" d="M330.056,164.419
						l9.29-20.747c0,0,2.477-10.838,7.741-17.341c5.264-6.503,16.102-10.219,25.392-21.676c2.892-3.567,5.454-7.073,7.611-10.212"/>
					<path style="fill:none;stroke:#FFFFFF;stroke-linecap:round;stroke-linejoin:round;stroke-miterlimit:10;" d="M374.034,127.566
						c8.973-13.311,20.741-30.963,20.741-30.963"/>
					<path style="fill:none;stroke:#FFFFFF;stroke-linecap:round;stroke-linejoin:round;stroke-miterlimit:10;" d="M340.585,172.47
						l13.625-21.367c0,0,5.264-2.168,13.315-13.935c0.98-1.432,2.125-3.117,3.381-4.972"/>
					
						<line style="fill:none;stroke:#FFFFFF;stroke-linecap:round;stroke-linejoin:round;stroke-miterlimit:10;" x1="411.202" y1="103.92" x2="415.213" y2="97.222"/>
					<polyline style="fill:none;stroke:#FFFFFF;stroke-linecap:round;stroke-linejoin:round;stroke-miterlimit:10;" points="
						363.16,167.386 370.002,159.154 383.318,150.484 408.064,109.159 					"/>
					
						<line style="fill:none;stroke:#FFFFFF;stroke-linecap:round;stroke-linejoin:round;stroke-miterlimit:10;" x1="350.184" y1="182.998" x2="359.991" y2="171.199"/>
					<path style="fill:none;stroke:#FFFFFF;stroke-linecap:round;stroke-linejoin:round;stroke-miterlimit:10;" d="M415.524,123.797
						c2.582-6.334,4.334-8.304,4.334-8.304"/>
					<path style="fill:none;stroke:#FFFFFF;stroke-linecap:round;stroke-linejoin:round;stroke-miterlimit:10;" d="M354.21,197.242
						c0,0,22.915-32.204,24.773-33.443c1.858-1.239,14.864,2.168,18.27-2.168c3.007-3.827,11.08-19.718,15.276-29.995"/>
				</g>
			</g>
			<path style="fill:#FFFFFF;stroke:#263238;stroke-linecap:round;stroke-linejoin:round;stroke-miterlimit:10;" d="M169.056,333.22
				c0,0,7.072-9.335,10.183-17.255c3.112-7.92,4.809-14.992,8.203-17.538c3.394-2.546,22.346-14.143,24.609-19.8
				c2.263-5.657,5.374-14.143,9.617-18.669c4.243-4.526,29.984-28.852,47.238-52.047s29.983-38.187,32.246-42.43
				c2.263-4.243,3.677-5.94,3.677-5.94s10.749-4.526,27.438,9.052c16.689,13.577,18.669,25.175,18.669,29.418
				c0,4.243,0,5.657,0,5.657l-72.413,67.604l-86.839,71.565c0,0-5.94,0-13.012-4.243C171.602,334.352,169.056,333.22,169.056,333.22
				z"/>
		</g>
		<g>
			<path style="fill:#FFFFFF;stroke:#263238;stroke-linecap:round;stroke-linejoin:round;stroke-miterlimit:10;" d="
				M283.353,365.165c0,0,3.813-3.588,6.952-3.14c3.14,0.449,3.813,2.018,4.261,8.074c0.448,6.055,0.224,11.886-2.018,14.353
				c-2.243,2.467-5.158,5.831-5.158,5.831s1.57-14.578,1.346-18.839C288.511,367.184,283.353,365.165,283.353,365.165z"/>
			<g>
				<path style="fill:#FFFFFF;stroke:#263238;stroke-linecap:round;stroke-linejoin:round;stroke-miterlimit:10;" d="
					M258.907,416.524c0,0,6.728,2.691,10.765,0.224c4.037-2.467,6.728-10.092,7.849-12.111c1.121-2.018,8.522-5.158,9.868-14.353
					s5.383-20.633,4.934-23.773c-0.449-3.14-5.831-3.364-8.971-1.346s-3.14,3.364-4.485,6.28c-1.346,2.915-6.055,26.24-8.298,28.258
					c-2.243,2.018-8.522,3.813-9.419,7.401C260.253,410.693,258.907,416.524,258.907,416.524z"/>
				<path style="fill:none;stroke:#263238;stroke-linecap:round;stroke-linejoin:round;stroke-miterlimit:10;" d="M287.441,369.033
					c0,0-1.493-0.83-1.825,1.659c-0.332,2.489-0.996,10.121,0.166,10.951c1.161,0.83,1.161,0.83,1.161,0.83"/>
				
					<line style="fill:none;stroke:#263238;stroke-linecap:round;stroke-linejoin:round;stroke-miterlimit:10;" x1="292.324" y1="366.511" x2="289.1" y2="368.369"/>
			</g>
			<path style="fill:#E0E0E0;stroke:#263238;stroke-linecap:round;stroke-linejoin:round;stroke-miterlimit:10;" d="
				M202.839,409.123c0,0,7.85,14.129,13.008,15.699c5.158,1.57,18.166,2.916,21.306,3.588s13.232,5.158,17.717,0.448
				c4.485-4.71,7.625-13.456,9.195-18.39c1.57-4.934,3.813-10.092,3.813-10.092l-66.833,3.364L202.839,409.123z"/>
		</g>
		<g>
			<g>
				<path style="fill:#92E3A9;" d="M244.511,171.453c0,0-1.079-6.776-1.598-8.79c-0.519-2.014-5.846-10.314-7.718-11.15
					c-1.872-0.836-1.872-0.836-1.872-0.836s-6.711-29.341-10.864-36.816c-4.153-7.475-9.967-11.351-12.182-12.182
					c-2.215-0.831-6.645-14.95-8.306-19.103c-1.661-4.153-4.707-20.487-15.781-23.256c-11.074-2.769-23.533,16.335-27.409,21.318
					c-3.876,4.983,6.368-17.165,5.26-24.64s-11.074-20.211-40.421,6.091c-29.347,26.302-30.454,32.116-26.855,37.93
					c3.599,5.814,22.979-19.38,19.657-10.244c-3.322,9.136-13.289,20.764-15.781,29.624c-2.492,8.859,0.277,14.674,3.599,16.335
					c3.322,1.661,10.813,2.958,10.813,2.958s7.671-0.253,10.229,1.472c2.557,1.725,2.557,1.725,2.557,1.725l18.779,16.382
					c0,0,2.303,9.204,2.75,11.794c0.447,2.59,2.215,10.798,4.153,12.459c1.938,1.661,19.069,9.71,19.069,9.71
					s0.513,4.16,3.596,7.192c3.083,3.032,6.792,3.996,6.792,3.996s3.212-19.236,22.592-26.158
					c19.38-6.922,35.992-6.091,35.992-6.091L244.511,171.453z"/>
				<g>
					<path style="fill:none;stroke:#263238;stroke-linecap:round;stroke-linejoin:round;stroke-miterlimit:10;" d="M69.504,92.739
						c0,0,11.188,2.397,17.98,22.375c6.792,19.978,23.974,23.974,27.57,23.574c3.596-0.4,11.188,1.199,12.786,3.197
						c1.598,1.998,16.782,14.384,18.779,16.382s1.998,11.188,3.196,14.384c1.199,3.197-0.799,8.391,7.991,12.386
						c8.79,3.996,14.784,7.192,14.784,7.192s0.399,4.395,3.596,7.192c3.197,2.797,6.792,3.996,6.792,3.996
						s-8.79-16.382,15.982-28.768c24.773-12.386,45.55-3.197,45.55-3.197s1.199-1.998-1.598-8.79
						c-2.797-6.792-9.589-11.987-9.589-11.987s-3.996-12.786-4.795-18.38c-0.799-5.594-3.996-16.782-6.793-21.576
						c-2.797-4.795-11.188-7.592-12.786-11.188c-1.598-3.596-9.589-31.166-13.585-37.159c-3.996-5.993-12.786-16.382-12.786-16.382"
						/>
					<path style="fill:none;stroke:#263238;stroke-linecap:round;stroke-linejoin:round;stroke-miterlimit:10;" d="M220.695,149.323
						c4.274-0.007,7.034,0.154,7.034,0.154"/>
					<path style="fill:none;stroke:#263238;stroke-linecap:round;stroke-linejoin:round;stroke-miterlimit:10;" d="M164.199,186.636
						c0,0,1.199-18.38,15.183-28.768c8.653-6.428,25.109-8.114,36.398-8.465"/>
					<path style="fill:none;stroke:#263238;stroke-linecap:round;stroke-linejoin:round;stroke-miterlimit:10;" d="M185.275,84.449
						c4.71-2.582,8.093-3.259,8.093-3.259"/>
					<path style="fill:none;stroke:#263238;stroke-linecap:round;stroke-linejoin:round;stroke-miterlimit:10;" d="M149.343,154.061
						c0,0,3.795-21.254,14.422-45.164c3.572-8.037,8.087-13.801,12.508-17.913"/>
					<path style="fill:none;stroke:#263238;stroke-linecap:round;stroke-linejoin:round;stroke-miterlimit:10;" d="M163.006,78.534
						c0,0-16.32,26.567-16.32,44.026"/>
				</g>
			</g>
			<g>
				<path style="fill:#E0E0E0;stroke:#263238;stroke-linecap:round;stroke-linejoin:round;stroke-miterlimit:10;" d="
					M287.838,347.897c-0.224-1.794-0.673-4.934-0.673-4.934s-1.794-26.912-1.794-51.358c0-24.445-0.224-34.762-3.588-43.06
					c-3.364-8.298-9.195-15.475-9.195-15.475s-16.148-30.725-20.409-40.817c-4.261-10.092-7.668-20.8-7.668-20.8
					s-8.031-7.907-28.888-7.01c-20.857,0.897-33.641,12.783-36.556,20.857c-2.916,8.074,3.912,18.117,3.912,18.117
					s25.95,29.586,32.402,35.658c6.452,6.073,12.904,24.29,12.525,30.742c-0.38,6.452-18.977,19.736-22.772,28.844
					c-3.795,9.109-9.868,27.706-15.561,39.092c-5.693,11.386-12.524,23.91-14.043,29.603c-1.518,5.693-11.006,20.495-11.386,25.049
					c-0.38,4.554,5.503,6.624,8.194,6.624c2.691,0,5.831-0.673,5.831-0.673s-1.794,3.14,5.831,5.831
					c7.625,2.691,29.38,7.625,32.968,7.177c3.588-0.449,6.952-3.813,11.214-6.952c4.261-3.14,27.81-19.96,29.155-20.857
					c1.346-0.897,13.905-10.316,18.839-13.456c4.934-3.14,10.316-7.849,10.989-12.335
					C287.838,353.279,288.063,349.691,287.838,347.897z M210.689,376.828c-5.158,4.934-8.747,13.905-8.747,13.905
					s-8.522-3.14-10.317-2.691c0,0,4.261-3.813,6.728-7.849c2.467-4.037,8.971-17.269,10.092-20.409
					c1.121-3.14,10.541-2.691,10.541,1.121C218.987,364.717,215.847,371.894,210.689,376.828z"/>
				<path style="fill:none;stroke:#263238;stroke-linecap:round;stroke-linejoin:round;stroke-miterlimit:10;" d="M172.125,379.32
					c0,0,6.637,2.157,7.632,6.637c0.996,4.48-0.83,7.964-1.991,10.121"/>
				<path style="fill:none;stroke:#263238;stroke-linecap:round;stroke-linejoin:round;stroke-miterlimit:10;" d="M224.467,335.924
					c0.464-1.856,0.813-3.572,1.161-4.966"/>
				<path style="fill:none;stroke:#263238;stroke-linecap:round;stroke-linejoin:round;stroke-miterlimit:10;" d="M210.354,356.981
					c0,0,2.829-3.394,7.92-8.486c2.169-2.169,3.619-4.851,4.657-7.565"/>
				<path style="fill:none;stroke:#263238;stroke-linecap:round;stroke-linejoin:round;stroke-miterlimit:10;" d="M229.452,349.892
					c0,0-2.069,4.345-0.414,6.414c1.655,2.069,1.655,2.069,1.655,2.069s-5.578,3.715-6.099,4.547"/>
			</g>
		</g>
		<path style="fill:none;stroke:#263238;stroke-linecap:round;stroke-linejoin:round;stroke-miterlimit:10;" d="M191.626,388.041
			c0,0-7.625,9.644-13.456,10.316"/>
		<g>
			<path style="fill:#FFFFFF;stroke:#263238;stroke-linecap:round;stroke-linejoin:round;stroke-miterlimit:10;" d="
				M176.127,326.432c0,0-6.223,1.697-8.203,8.486c-1.98,6.789,3.112,7.354,4.809,16.123c1.697,8.769,3.394,18.386,8.769,17.255
				c5.374-1.131,10.183-5.657,12.729-14.992c2.546-9.335,0.566-21.78-3.394-24.609"/>
			<path style="fill:none;stroke:#263238;stroke-linecap:round;stroke-linejoin:round;stroke-miterlimit:10;" d="M178.596,366.71
				c0,0,2.489-4.148,4.48-7.135c1.991-2.987,2.821-5.144,1.327-10.121c-1.493-4.978-6.803-4.148-8.13,2.157
				c-1.327,6.305,0.166,12.942,0.166,12.942"/>
		</g>
		<g>
			<path style="fill:#FFFFFF;stroke:#263238;stroke-linecap:round;stroke-linejoin:round;stroke-miterlimit:10;" d="
				M200.821,376.155c0,0,10.092,11.662,13.232,14.353c3.14,2.691,12.111,0.224,14.353-1.121c2.243-1.346,23.773-7.85,28.707-10.316
				c4.934-2.467,10.316-8.971,11.886-10.989c1.57-2.018,7.401-6.28,8.074-9.868c0.673-3.588-3.14-8.747-10.989-6.28
				c-7.849,2.467-22.427,9.419-22.427,9.419l-19.063,1.57c0,0-10.316-8.747-16.148-3.14L200.821,376.155z"/>
			<path style="fill:none;stroke:#263238;stroke-linecap:round;stroke-linejoin:round;stroke-miterlimit:10;" d="M275.66,354.431
				c0,0-3.484-1.825-5.143-0.332c-1.659,1.493-8.96,7.135-8.628,10.287c0.332,3.152,2.655,5.475,4.48,4.314"/>
		</g>
		<g>
			<path style="fill:#FFFFFF;stroke:#263238;stroke-linecap:round;stroke-linejoin:round;stroke-miterlimit:10;" d="M221.23,409.347
				c0,0,9.644,14.129,15.026,12.784c5.383-1.346,32.071-17.717,35.883-20.184c3.813-2.467,5.607-9.868,8.074-18.166
				c2.467-8.298,4.485-13.008,3.588-15.026c-0.897-2.018-7.401-2.916-13.008,0.673c-5.607,3.588-10.765,12.335-10.765,12.335
				L221.23,409.347z"/>
			<path style="fill:none;stroke:#263238;stroke-linecap:round;stroke-linejoin:round;stroke-miterlimit:10;" d="M280.14,368.203
				c0,0-3.816,0.332-4.978,5.144c-1.161,4.812-1.161,10.619,0.498,11.117c1.659,0.498,3.153-0.664,3.153-0.664"/>
			<path style="fill:none;stroke:#263238;stroke-linecap:round;stroke-linejoin:round;stroke-miterlimit:10;" d="M260.029,381.762
				c0,0-4.093,2.477-2.852,5.994"/>
		</g>
	</g>
</g>
</svg>
